<svg width="16" height="16" viewBox="0 0 16 16" fill="none" xmlns="http://www.w3.org/2000/svg">
<g clip-path="url(#clip0_295_1630)">
<path d="M13.2526 3.1244L10.2493 3.12441V2.37686C10.2493 2.16962 10.0815 2.00177 9.87422 2.00177C9.66698 2.00177 9.49913 2.16962 9.49913 2.37686V3.12422H6.49843V2.37686C6.49843 2.16962 6.33058 2.00177 6.12334 2.00177C5.91611 2.00177 5.74825 2.16962 5.74825 2.37686V3.12422H2.75018C2.33589 3.12422 2 3.46011 2 3.8744V13.2516C2 13.6659 2.33589 14.0018 2.75018 14.0018H13.2526C13.6669 14.0018 14.0028 13.6659 14.0028 13.2516V3.8744C14.0028 3.46029 13.6669 3.1244 13.2526 3.1244ZM13.2526 13.2516H2.75018V3.8744H5.74825V4.2523C5.74825 4.45952 5.91611 4.62739 6.12334 4.62739C6.33058 4.62739 6.49843 4.45952 6.49843 4.2523V3.87458H9.49913V4.25249C9.49913 4.45972 9.66698 4.62757 9.87422 4.62757C10.0815 4.62757 10.2493 4.45972 10.2493 4.25249V3.87458H13.2526V13.2516ZM10.627 8.00054H11.3772C11.5842 8.00054 11.7523 7.8325 11.7523 7.62545V6.87528C11.7523 6.66823 11.5842 6.50019 11.3772 6.50019H10.627C10.42 6.50019 10.2519 6.66823 10.2519 6.87528V7.62545C10.2519 7.8325 10.42 8.00054 10.627 8.00054ZM10.627 11.0011H11.3772C11.5842 11.0011 11.7523 10.8332 11.7523 10.626V9.87579C11.7523 9.66874 11.5842 9.5007 11.3772 9.5007H10.627C10.42 9.5007 10.2519 9.66874 10.2519 9.87579V10.626C10.2519 10.8334 10.42 11.0011 10.627 11.0011ZM8.37649 9.5007H7.62632C7.41927 9.5007 7.25123 9.66874 7.25123 9.87579V10.626C7.25123 10.8332 7.41927 11.0011 7.62632 11.0011H8.37649C8.58354 11.0011 8.75158 10.8332 8.75158 10.626V9.87579C8.75158 9.66893 8.58354 9.5007 8.37649 9.5007ZM8.37649 6.50019H7.62632C7.41927 6.50019 7.25123 6.66823 7.25123 6.87528V7.62545C7.25123 7.8325 7.41927 8.00054 7.62632 8.00054H8.37649C8.58354 8.00054 8.75158 7.8325 8.75158 7.62545V6.87528C8.75158 6.66804 8.58354 6.50019 8.37649 6.50019ZM5.37579 6.50019H4.62562C4.41857 6.50019 4.25053 6.66823 4.25053 6.87528V7.62545C4.25053 7.8325 4.41857 8.00054 4.62562 8.00054H5.37579C5.58284 8.00054 5.75088 7.8325 5.75088 7.62545V6.87528C5.75088 6.66804 5.58284 6.50019 5.37579 6.50019ZM5.37579 9.5007H4.62562C4.41857 9.5007 4.25053 9.66874 4.25053 9.87579V10.626C4.25053 10.8332 4.41857 11.0011 4.62562 11.0011H5.37579C5.58284 11.0011 5.75088 10.8332 5.75088 10.626V9.87579C5.75088 9.66893 5.58284 9.5007 5.37579 9.5007Z" fill="#939394"/>
</g>
<defs>
<clipPath id="clip0_295_1630">
<rect width="16" height="16" fill="white"/>
</clipPath>
</defs>
</svg>
