<svg width="40" height="41" viewBox="0 0 40 41" fill="none" xmlns="http://www.w3.org/2000/svg">
<g filter="url(#filter0_d_17_1235)">
<path d="M0 20C0 8.95431 8.95431 0 20 0C31.0457 0 40 8.95431 40 20C40 31.0457 31.0457 40 20 40C8.95431 40 0 31.0457 0 20Z" fill="white" fill-opacity="0.04" shape-rendering="crispEdges"/>
<path d="M0.5 20C0.5 9.23045 9.23045 0.5 20 0.5C30.7696 0.5 39.5 9.23045 39.5 20C39.5 30.7696 30.7696 39.5 20 39.5C9.23045 39.5 0.5 30.7696 0.5 20Z" stroke="url(#paint0_linear_17_1235)" shape-rendering="crispEdges"/>
<path fill-rule="evenodd" clip-rule="evenodd" d="M27.9632 14.7408L14.7402 27.9638C12.9615 29.7433 10.2559 27.0379 12.0346 25.2583L25.2576 12.0352C27.0363 10.2565 29.7418 12.962 27.9632 14.7408Z" fill="white"/>
<path fill-rule="evenodd" clip-rule="evenodd" d="M29.9986 26.1744C29.9986 27.8956 28.8786 28.8429 28.8786 28.88C27.3877 30.3717 24.975 30.3766 23.4733 28.875L23.4684 28.88C21.0664 26.478 22.7777 22.3497 26.174 22.3497C28.2767 22.3489 29.9986 24.0709 29.9986 26.1744Z" fill="white"/>
<path fill-rule="evenodd" clip-rule="evenodd" d="M11.1194 16.5302L11.1243 16.5253C9.62274 15.0237 9.63261 12.6109 11.1194 11.12C11.1556 11.12 12.1029 10 13.8241 10C17.189 10 18.9473 14.1125 16.5297 16.5302C15.033 18.022 12.6153 18.022 11.1196 16.5302L11.1194 16.5302Z" fill="white"/>
</g>
<defs>
<filter id="filter0_d_17_1235" x="0" y="0" width="40" height="41" filterUnits="userSpaceOnUse" color-interpolation-filters="sRGB">
<feFlood flood-opacity="0" result="BackgroundImageFix"/>
<feColorMatrix in="SourceAlpha" type="matrix" values="0 0 0 0 0 0 0 0 0 0 0 0 0 0 0 0 0 0 127 0" result="hardAlpha"/>
<feOffset dy="1"/>
<feComposite in2="hardAlpha" operator="out"/>
<feColorMatrix type="matrix" values="0 0 0 0 0 0 0 0 0 0 0 0 0 0 0 0 0 0 0.1 0"/>
<feBlend mode="normal" in2="BackgroundImageFix" result="effect1_dropShadow_17_1235"/>
<feBlend mode="normal" in="SourceGraphic" in2="effect1_dropShadow_17_1235" result="shape"/>
</filter>
<linearGradient id="paint0_linear_17_1235" x1="12.9134" y1="-1.42857" x2="30.1284" y2="35.3371" gradientUnits="userSpaceOnUse">
<stop stop-color="white" stop-opacity="0.4"/>
<stop offset="0.4" stop-color="white" stop-opacity="0.01"/>
<stop offset="0.6" stop-color="white" stop-opacity="0.01"/>
<stop offset="1" stop-color="white" stop-opacity="0.1"/>
</linearGradient>
</defs>
</svg>
