<svg width="40" height="41" viewBox="0 0 40 41" fill="none" xmlns="http://www.w3.org/2000/svg">
<g filter="url(#filter0_d_17_1185)">
<path d="M0 20C0 8.95431 8.95431 0 20 0C31.0457 0 40 8.95431 40 20C40 31.0457 31.0457 40 20 40C8.95431 40 0 31.0457 0 20Z" fill="white" fill-opacity="0.04" shape-rendering="crispEdges"/>
<path d="M0.5 20C0.5 9.23045 9.23045 0.5 20 0.5C30.7696 0.5 39.5 9.23045 39.5 20C39.5 30.7696 30.7696 39.5 20 39.5C9.23045 39.5 0.5 30.7696 0.5 20Z" stroke="url(#paint0_linear_17_1185)" shape-rendering="crispEdges"/>
<path d="M7.98364 20C7.98364 22.3734 8.68839 24.6934 10.0088 26.6668C11.3291 28.6402 13.2058 30.1783 15.4015 31.0865C17.5972 31.9948 20.0133 32.2324 22.3443 31.7694C24.6752 31.3064 26.8163 30.1635 28.4968 28.4853C30.1773 26.807 31.3218 24.6689 31.7854 22.3411C32.2491 20.0133 32.0111 17.6005 31.1016 15.4078C30.1922 13.2151 28.652 11.3409 26.6759 10.0224C24.6998 8.70379 22.3766 8 20 8C16.8142 8.00359 13.7598 9.26902 11.5071 11.5187C9.2544 13.7683 7.98724 16.8185 7.98364 20ZM30.218 20C30.218 22.0182 29.6187 23.9911 28.4959 25.6692C27.3731 27.3473 25.7772 28.6552 23.9101 29.4275C22.043 30.1998 19.9885 30.4019 18.0063 30.0081C16.0242 29.6144 14.2035 28.6425 12.7745 27.2154C11.3455 25.7883 10.3723 23.9701 9.97803 21.9907C9.58378 20.0112 9.78616 17.9595 10.5596 16.0949C11.333 14.2303 12.6427 12.6367 14.3231 11.5154C16.0034 10.3942 17.979 9.79574 20 9.79577C22.7091 9.79882 25.3063 10.8749 27.2219 12.7879C29.1375 14.7009 30.215 17.2946 30.218 20Z" fill="white"/>
<path d="M11.5344 20C11.5344 21.672 12.0309 23.3066 12.9611 24.6968C13.8914 26.0871 15.2135 27.1707 16.7604 27.8106C18.3073 28.4504 20.0094 28.6178 21.6516 28.2916C23.2938 27.9654 24.8022 27.1603 25.9861 25.9779C27.1701 24.7956 27.9764 23.2892 28.303 21.6493C28.6297 20.0094 28.462 18.3095 27.8213 16.7647C27.1805 15.2199 26.0955 13.8996 24.7033 12.9706C23.3111 12.0417 21.6744 11.5459 20 11.5459C17.7556 11.5484 15.6038 12.4399 14.0167 14.0248C12.4297 15.6097 11.5369 17.7586 11.5344 20ZM24.058 15.7518C24.058 15.9839 23.9657 16.2065 23.8013 16.3706C23.637 16.5347 23.4141 16.6269 23.1817 16.6269H21.7315C21.9048 16.8995 22.0414 17.1937 22.1377 17.502H23.182C23.4144 17.502 23.6373 17.5942 23.8016 17.7583C23.9659 17.9224 24.0583 18.1449 24.0583 18.377C24.0583 18.6091 23.9659 18.8317 23.8016 18.9958C23.6373 19.1599 23.4144 19.2521 23.182 19.2521H22.1377C21.9585 19.9732 21.5616 20.6217 21.0008 21.1099C20.4399 21.598 19.7423 21.902 19.0026 21.9807L21.9715 24.8026C22.1404 24.962 22.239 25.1819 22.2456 25.4139C22.2522 25.6459 22.1663 25.8711 22.0067 26.0398C21.847 26.2085 21.6269 26.307 21.3945 26.3136C21.1622 26.3202 20.9367 26.2343 20.7678 26.0749L16.2168 21.7809C16.0893 21.6609 16.0008 21.5053 15.9629 21.3344C15.925 21.1636 15.9395 20.9853 16.0043 20.8227C16.0692 20.6601 16.1815 20.5208 16.3266 20.4228C16.4718 20.3247 16.6431 20.2726 16.8184 20.273H18.6392C18.9781 20.2646 19.3084 20.1654 19.5957 19.9858C19.883 19.8062 20.1166 19.5528 20.2723 19.2521H16.8184C16.586 19.2521 16.3631 19.1599 16.1988 18.9958C16.0344 18.8317 15.9421 18.6091 15.9421 18.377C15.9421 18.1449 16.0344 17.9224 16.1988 17.7583C16.3631 17.5942 16.586 17.502 16.8184 17.502H20.2723C19.959 16.9186 19.3446 16.6269 18.6392 16.6269H16.8184C16.586 16.6269 16.3631 16.5347 16.1988 16.3706C16.0344 16.2065 15.9421 15.9839 15.9421 15.7518C15.9421 15.5198 16.0344 15.2972 16.1988 15.1331C16.3631 14.969 16.586 14.8768 16.8184 14.8768H23.1817C23.4141 14.8768 23.637 14.969 23.8013 15.1331C23.9657 15.2972 24.058 15.5198 24.058 15.7518Z" fill="white"/>
</g>
<defs>
<filter id="filter0_d_17_1185" x="0" y="0" width="40" height="41" filterUnits="userSpaceOnUse" color-interpolation-filters="sRGB">
<feFlood flood-opacity="0" result="BackgroundImageFix"/>
<feColorMatrix in="SourceAlpha" type="matrix" values="0 0 0 0 0 0 0 0 0 0 0 0 0 0 0 0 0 0 127 0" result="hardAlpha"/>
<feOffset dy="1"/>
<feComposite in2="hardAlpha" operator="out"/>
<feColorMatrix type="matrix" values="0 0 0 0 0 0 0 0 0 0 0 0 0 0 0 0 0 0 0.1 0"/>
<feBlend mode="normal" in2="BackgroundImageFix" result="effect1_dropShadow_17_1185"/>
<feBlend mode="normal" in="SourceGraphic" in2="effect1_dropShadow_17_1185" result="shape"/>
</filter>
<linearGradient id="paint0_linear_17_1185" x1="12.9134" y1="-1.42857" x2="30.1284" y2="35.3371" gradientUnits="userSpaceOnUse">
<stop stop-color="white" stop-opacity="0.4"/>
<stop offset="0.4" stop-color="white" stop-opacity="0.01"/>
<stop offset="0.6" stop-color="white" stop-opacity="0.01"/>
<stop offset="1" stop-color="white" stop-opacity="0.1"/>
</linearGradient>
</defs>
</svg>
