<svg width="16" height="16" viewBox="0 0 16 16" fill="none" xmlns="http://www.w3.org/2000/svg">
<path d="M12.6667 10H11.3333V8.66668H12.6667M12.6667 12.6667H11.3333V11.3333H12.6667M8.66667 4.66668H7.33333V3.33334H8.66667M8.66667 7.33334H7.33333V6.00001H8.66667M8.66667 10H7.33333V8.66668H8.66667M8.66667 12.6667H7.33333V11.3333H8.66667M4.66667 7.33334H3.33333V6.00001H4.66667M4.66667 10H3.33333V8.66668H4.66667M4.66667 12.6667H3.33333V11.3333H4.66667M10 7.33334V3.33334L8 1.33334L6 3.33334V4.66668H2V14H14V7.33334H10Z" fill="#1A1A1A"/>
</svg>
