<svg width="143" height="58" viewBox="0 0 143 58" fill="none" xmlns="http://www.w3.org/2000/svg">
<path d="M108.566 31.9224C108.145 32.1234 107.759 32.3886 107.42 32.7083C106.665 33.4241 106.087 34.4963 105.882 36.0765L105.453 35.5573L102.399 31.8635L101.223 30.4376L100.162 29.1549L81.025 5.99016L61.9751 27.5073L59.6033 30.1906L56.3109 33.9096C56.2496 33.0564 55.9715 32.2329 55.5029 31.5173C55.0343 30.8016 54.3907 30.2174 53.6332 29.8201L56.8891 26.1432L58.7641 24.0184L79.3156 0.794728C79.5404 0.539523 79.818 0.336284 80.1291 0.199117C80.4403 0.0619498 80.7776 -0.0058591 81.1176 0.00039664C81.4568 0.00536699 81.7909 0.0831178 82.0975 0.22839C82.404 0.373663 82.6757 0.583068 82.8943 0.842444L102.393 24.4478L103.485 25.7727L104.176 26.6147L105.447 28.1528L108.566 31.9224Z" fill="#0BB501"/>
<path d="M95.2389 30.9934V46.8463C95.2389 47.223 95.0892 47.5842 94.8229 47.8506C94.5565 48.1169 94.1953 48.2666 93.8186 48.2666H84.6599V35.5741C84.6603 35.5231 84.6505 35.4726 84.6312 35.4254C84.6119 35.3783 84.5834 35.3354 84.5473 35.2994C84.5113 35.2633 84.4684 35.2348 84.4213 35.2155C84.3741 35.1962 84.3236 35.1864 84.2726 35.1868H77.9348C77.8838 35.1864 77.8333 35.1962 77.7861 35.2155C77.739 35.2348 77.6961 35.2633 77.6601 35.2994C77.624 35.3354 77.5955 35.3783 77.5762 35.4254C77.5568 35.4726 77.5471 35.5231 77.5474 35.5741V48.2778H67.1173C66.9307 48.2782 66.7458 48.2417 66.5733 48.1704C66.4009 48.0992 66.2441 47.9946 66.1122 47.8626C65.9802 47.7307 65.8756 47.574 65.8044 47.4015C65.7331 47.229 65.6967 47.0442 65.697 46.8575V31.0186C65.6992 30.6726 65.8257 30.3389 66.0535 30.0783L67.1173 28.877L79.8771 14.4556C80.0117 14.3005 80.1786 14.1768 80.3662 14.0933C80.5538 14.0098 80.7574 13.9684 80.9627 13.9722C81.168 13.9759 81.37 14.0247 81.5544 14.115C81.7388 14.2053 81.9011 14.335 82.0299 14.4949L93.9112 28.877L94.9105 30.0868C95.1213 30.342 95.2373 30.6623 95.2389 30.9934Z" fill="#0BB501"/>
<path d="M142.121 23.3701L133.456 45.6731C133.124 46.5272 132.542 47.261 131.786 47.7784C131.029 48.2958 130.134 48.5726 129.218 48.5726H127.635C126.719 48.5725 125.825 48.2955 125.069 47.7781C124.313 47.2607 123.731 46.527 123.4 45.6731L114.732 23.3701H123.332L128.452 39.4757L133.571 23.3701H142.121Z" fill="#0BB501"/>
<path d="M15.5671 23.2043V31.6052C15.5671 31.6052 7.90169 29.5141 7.85959 37.3648C7.81749 45.2155 7.85959 48.2777 7.85959 48.2777H0.0173205V37.6118C0.0173205 37.6118 -1.14471 23.2043 15.5671 23.2043Z" fill="#0BB501"/>
<path d="M113.494 23.2043V31.6052C113.494 31.6052 110.772 30.8614 108.566 31.9223C108.145 32.1222 107.758 32.3874 107.42 32.7083C106.668 33.424 106.087 34.4962 105.882 36.0764C105.827 36.5027 105.799 36.9321 105.798 37.362C105.798 37.6286 105.798 37.8868 105.798 38.1451C105.776 45.4176 105.798 48.2496 105.798 48.2496H97.9586V37.5837C97.8629 35.1171 98.3727 32.6645 99.4434 30.4403C99.6619 29.9986 99.9065 29.5702 100.176 29.1576C100.793 28.2123 101.544 27.3613 102.405 26.6315C102.756 26.3294 103.124 26.0482 103.508 25.7894C105.773 24.2513 108.984 23.2043 113.494 23.2043Z" fill="#0BB501"/>
<path d="M28.5488 43.3996C24.6193 42.7933 23.5218 39.1893 23.5218 39.1893C39.0464 34.0921 36.3911 23.8585 36.3911 23.8585C35.1365 23.2185 26.629 21.1555 21.3718 25.492C16.1146 29.8286 15.9687 36.8176 17.2486 40.7724C21.3718 53.2319 36.2592 47.593 36.2592 47.593V41.7267C35.5126 42.2965 32.4952 44.0002 28.5488 43.3996ZM25.8515 28.7367C27.5552 27.3333 30.3087 28.0013 30.7157 28.2062C30.7157 28.2062 31.7907 32.3491 24.5154 33.688C24.1 32.4081 24.1393 30.1401 25.8515 28.7367Z" fill="#0BB501"/>
<path d="M61.975 27.5072C60.5884 25.2656 58.5317 23.5172 56.0962 22.5096C53.6606 21.5019 50.9698 21.2862 48.4048 21.8929C45.8398 22.4996 43.5308 23.898 41.8048 25.89C40.0787 27.8819 39.0233 30.3665 38.7878 32.9917C38.7513 33.3622 38.7345 33.7355 38.7345 34.1145V57.2736C38.7345 57.2736 43.638 57.4869 45.0611 51.9406V45.0246C47.4863 46.4145 50.3058 46.9555 53.0732 46.5619C55.8406 46.1684 58.3975 44.8628 60.3391 42.852C62.2807 40.8411 63.4959 38.24 63.7922 35.4605C64.0885 32.6811 63.449 29.8822 61.975 27.5072ZM51.295 39.2959C50.3151 39.2966 49.3562 39.0111 48.5362 38.4746C47.7161 37.9381 47.0705 37.1738 46.6787 36.2756C46.2868 35.3774 46.1657 34.3843 46.3302 33.4183C46.4948 32.4522 46.9378 31.5552 47.6049 30.8374C48.2719 30.1195 49.1341 29.612 50.0855 29.3772C51.037 29.1424 52.0362 29.1904 52.9607 29.5155C53.8852 29.8405 54.6947 30.4284 55.2898 31.207C55.8849 31.9856 56.2398 32.9209 56.3108 33.8983C56.3108 34.019 56.3108 34.1397 56.3108 34.2632C56.3134 34.9242 56.1857 35.5792 55.935 36.1908C55.6842 36.8025 55.3154 37.3586 54.8496 37.8276C54.3837 38.2966 53.83 38.6691 53.2201 38.9239C52.6102 39.1788 51.956 39.3109 51.295 39.3127V39.2959Z" fill="#0BB501"/>
<path d="M80.6042 25.1553H78.6703V27.0892H80.6042V25.1553Z" fill="white"/>
<path d="M80.6042 27.6646H78.6703V29.5985H80.6042V27.6646Z" fill="white"/>
<path d="M83.0377 25.1553H81.1038V27.0892H83.0377V25.1553Z" fill="white"/>
<path d="M83.0377 27.6646H81.1038V29.5985H83.0377V27.6646Z" fill="white"/>
<path d="M51.1778 52.7686V52.2018H54.5549V52.7686H53.1934V56.5654H52.5372V52.7686H51.1778ZM54.9102 56.5654V53.2927H55.526V53.8126H55.5601C55.6197 53.6365 55.7248 53.498 55.8754 53.3971C56.0274 53.2948 56.1993 53.2437 56.391 53.2437C56.4308 53.2437 56.4777 53.2451 56.5316 53.248C56.587 53.2508 56.6304 53.2543 56.6616 53.2586V53.868C56.6361 53.8609 56.5906 53.8531 56.5253 53.8445C56.4599 53.8346 56.3946 53.8296 56.3292 53.8296C56.1787 53.8296 56.0444 53.8616 55.9265 53.9255C55.8101 53.988 55.7177 54.0754 55.6495 54.1876C55.5814 54.2984 55.5473 54.4248 55.5473 54.5669V56.5654H54.9102ZM59.2861 55.2082V53.2927H59.9253V56.5654H59.2989V55.9987H59.2648C59.1895 56.1734 59.0688 56.319 58.9026 56.4355C58.7378 56.5505 58.5325 56.608 58.2868 56.608C58.0766 56.608 57.8905 56.5619 57.7286 56.4695C57.568 56.3758 57.4416 56.2373 57.3493 56.0541C57.2584 55.8708 57.2129 55.6443 57.2129 55.3744V53.2927H57.85V55.2977C57.85 55.5207 57.9118 55.6982 58.0354 55.8303C58.159 55.9624 58.3195 56.0285 58.5169 56.0285C58.6362 56.0285 58.7548 55.9987 58.8727 55.939C58.9921 55.8794 59.0908 55.7892 59.1689 55.6684C59.2484 55.5477 59.2875 55.3943 59.2861 55.2082ZM62.309 53.2927V53.8041H60.5214V53.2927H62.309ZM61.0008 52.5086H61.6378V55.6045C61.6378 55.7281 61.6563 55.8211 61.6932 55.8836C61.7302 55.9447 61.7777 55.9866 61.836 56.0093C61.8956 56.0306 61.9603 56.0413 62.0299 56.0413C62.081 56.0413 62.1258 56.0377 62.1641 56.0306C62.2025 56.0235 62.2323 56.0178 62.2536 56.0136L62.3687 56.5399C62.3317 56.5541 62.2792 56.5683 62.211 56.5825C62.1428 56.5981 62.0576 56.6066 61.9553 56.608C61.7877 56.6109 61.6314 56.5811 61.4866 56.5186C61.3417 56.4561 61.2245 56.3595 61.135 56.2288C61.0455 56.0981 61.0008 55.934 61.0008 55.7366V52.5086ZM63.7211 54.6222V56.5654H63.084V52.2018H63.7126V53.8254H63.7531C63.8298 53.6492 63.947 53.5093 64.1046 53.4056C64.2623 53.3019 64.4683 53.2501 64.7225 53.2501C64.947 53.2501 65.143 53.2963 65.3106 53.3886C65.4796 53.4809 65.6103 53.6187 65.7026 53.8019C65.7964 53.9838 65.8433 54.211 65.8433 54.4838V56.5654H65.2062V54.5605C65.2062 54.3204 65.1444 54.1343 65.0208 54.0022C64.8972 53.8687 64.7254 53.8019 64.5052 53.8019C64.3546 53.8019 64.2197 53.8339 64.1004 53.8978C63.9825 53.9617 63.8894 54.0555 63.8212 54.1791C63.7545 54.3012 63.7211 54.449 63.7211 54.6222ZM67.1131 56.6059C66.9967 56.6059 66.8965 56.5647 66.8127 56.4823C66.7289 56.3985 66.687 56.2977 66.687 56.1798C66.687 56.0633 66.7289 55.9639 66.8127 55.8815C66.8965 55.7977 66.9967 55.7558 67.1131 55.7558C67.2296 55.7558 67.3298 55.7977 67.4136 55.8815C67.4974 55.9639 67.5393 56.0633 67.5393 56.1798C67.5393 56.2579 67.5194 56.3296 67.4796 56.395C67.4413 56.4589 67.3901 56.51 67.3262 56.5484C67.2623 56.5867 67.1913 56.6059 67.1131 56.6059ZM68.0235 52.7686V52.2018H71.4006V52.7686H70.0391V56.5654H69.3829V52.7686H68.0235ZM71.7559 56.5654V53.2927H72.3717V53.8126H72.4058C72.4654 53.6365 72.5705 53.498 72.7211 53.3971C72.8731 53.2948 73.045 53.2437 73.2367 53.2437C73.2765 53.2437 73.3234 53.2451 73.3774 53.248C73.4328 53.2508 73.4761 53.2543 73.5073 53.2586V53.868C73.4818 53.8609 73.4363 53.8531 73.371 53.8445C73.3056 53.8346 73.2403 53.8296 73.1749 53.8296C73.0244 53.8296 72.8901 53.8616 72.7722 53.9255C72.6558 53.988 72.5634 54.0754 72.4953 54.1876C72.4271 54.2984 72.393 54.4248 72.393 54.5669V56.5654H71.7559ZM76.1318 55.2082V53.2927H76.771V56.5654H76.1446V55.9987H76.1105C76.0352 56.1734 75.9145 56.319 75.7483 56.4355C75.5835 56.5505 75.3782 56.608 75.1325 56.608C74.9223 56.608 74.7362 56.5619 74.5743 56.4695C74.4138 56.3758 74.2873 56.2373 74.195 56.0541C74.1041 55.8708 74.0586 55.6443 74.0586 55.3744V53.2927H74.6957V55.2977C74.6957 55.5207 74.7575 55.6982 74.8811 55.8303C75.0047 55.9624 75.1652 56.0285 75.3626 56.0285C75.4819 56.0285 75.6005 55.9987 75.7184 55.939C75.8378 55.8794 75.9365 55.7892 76.0146 55.6684C76.0941 55.5477 76.1332 55.3943 76.1318 55.2082ZM80.0794 54.0917L79.502 54.194C79.4778 54.1201 79.4395 54.0498 79.3869 53.983C79.3358 53.9163 79.2662 53.8616 79.1781 53.819C79.0901 53.7764 78.98 53.7551 78.8479 53.7551C78.6675 53.7551 78.5169 53.7955 78.3962 53.8765C78.2754 53.9561 78.2151 54.059 78.2151 54.1855C78.2151 54.2948 78.2555 54.3829 78.3365 54.4497C78.4175 54.5164 78.5482 54.5711 78.7286 54.6137L79.2484 54.733C79.5496 54.8026 79.774 54.9099 79.9217 55.0548C80.0695 55.1997 80.1433 55.3879 80.1433 55.6194C80.1433 55.8154 80.0865 55.9901 79.9729 56.1436C79.8607 56.2955 79.7037 56.4149 79.502 56.5015C79.3017 56.5882 79.0695 56.6315 78.8053 56.6315C78.4388 56.6315 78.1398 56.5534 77.9082 56.3971C77.6767 56.2394 77.5347 56.0157 77.4821 55.7259L78.0979 55.6322C78.1362 55.7927 78.2151 55.9142 78.3344 55.9965C78.4537 56.0775 78.6092 56.118 78.801 56.118C79.0098 56.118 79.1767 56.0747 79.3017 55.988C79.4267 55.8999 79.4892 55.7927 79.4892 55.6663C79.4892 55.564 79.4509 55.4781 79.3742 55.4085C79.2989 55.3389 79.1831 55.2863 79.0269 55.2508L78.4729 55.1294C78.1675 55.0597 77.9416 54.949 77.7953 54.797C77.6504 54.645 77.578 54.4525 77.578 54.2195C77.578 54.0264 77.632 53.8573 77.7399 53.7124C77.8479 53.5676 77.997 53.4546 78.1874 53.3737C78.3777 53.2913 78.5957 53.2501 78.8415 53.2501C79.1952 53.2501 79.4736 53.3268 79.6767 53.4802C79.8798 53.6322 80.0141 53.836 80.0794 54.0917ZM82.3715 53.2927V53.8041H80.5839V53.2927H82.3715ZM81.0633 52.5086H81.7003V55.6045C81.7003 55.7281 81.7188 55.8211 81.7557 55.8836C81.7927 55.9447 81.8402 55.9866 81.8985 56.0093C81.9581 56.0306 82.0228 56.0413 82.0924 56.0413C82.1435 56.0413 82.1883 56.0377 82.2266 56.0306C82.265 56.0235 82.2948 56.0178 82.3161 56.0136L82.4312 56.5399C82.3942 56.5541 82.3417 56.5683 82.2735 56.5825C82.2053 56.5981 82.1201 56.6066 82.0178 56.608C81.8502 56.6109 81.6939 56.5811 81.5491 56.5186C81.4042 56.4561 81.287 56.3595 81.1975 56.2288C81.108 56.0981 81.0633 55.934 81.0633 55.7366V52.5086ZM83.496 56.6059C83.3795 56.6059 83.2793 56.5647 83.1955 56.4823C83.1117 56.3985 83.0698 56.2977 83.0698 56.1798C83.0698 56.0633 83.1117 55.9639 83.1955 55.8815C83.2793 55.7977 83.3795 55.7558 83.496 55.7558C83.6124 55.7558 83.7126 55.7977 83.7964 55.8815C83.8802 55.9639 83.9221 56.0633 83.9221 56.1798C83.9221 56.2579 83.9022 56.3296 83.8624 56.395C83.8241 56.4589 83.7729 56.51 83.709 56.5484C83.6451 56.5867 83.5741 56.6059 83.496 56.6059ZM84.4063 52.7686V52.2018H87.7834V52.7686H86.4219V56.5654H85.7657V52.7686H84.4063ZM88.1387 56.5654V53.2927H88.7545V53.8126H88.7886C88.8482 53.6365 88.9533 53.498 89.1039 53.3971C89.2559 53.2948 89.4278 53.2437 89.6195 53.2437C89.6593 53.2437 89.7062 53.2451 89.7602 53.248C89.8156 53.2508 89.8589 53.2543 89.8901 53.2586V53.868C89.8646 53.8609 89.8191 53.8531 89.7538 53.8445C89.6884 53.8346 89.6231 53.8296 89.5578 53.8296C89.4072 53.8296 89.2729 53.8616 89.1551 53.9255C89.0386 53.988 88.9462 54.0754 88.8781 54.1876C88.8099 54.2984 88.7758 54.4248 88.7758 54.5669V56.5654H88.1387ZM91.3646 56.6379C91.1572 56.6379 90.9697 56.5995 90.8021 56.5228C90.6345 56.4447 90.5016 56.3318 90.4036 56.184C90.307 56.0363 90.2587 55.8552 90.2587 55.6407C90.2587 55.4561 90.2943 55.3041 90.3653 55.1847C90.4363 55.0654 90.5322 54.971 90.6529 54.9014C90.7737 54.8318 90.9086 54.7792 91.0578 54.7437C91.2069 54.7082 91.3589 54.6812 91.5137 54.6627C91.7097 54.64 91.8688 54.6215 91.991 54.6073C92.1131 54.5917 92.2019 54.5669 92.2573 54.5328C92.3127 54.4987 92.3404 54.4433 92.3404 54.3666V54.3517C92.3404 54.1656 92.2879 54.0214 92.1828 53.9191C92.0791 53.8169 91.9242 53.7657 91.7183 53.7657C91.5038 53.7657 91.3347 53.8133 91.2112 53.9085C91.089 54.0022 91.0045 54.1066 90.9576 54.2217L90.3589 54.0853C90.4299 53.8865 90.5336 53.7259 90.67 53.6038C90.8078 53.4802 90.9661 53.3907 91.1451 53.3353C91.3241 53.2785 91.5123 53.2501 91.7097 53.2501C91.8404 53.2501 91.9789 53.2657 92.1252 53.297C92.2729 53.3268 92.4107 53.3822 92.5386 53.4632C92.6678 53.5441 92.7737 53.6599 92.856 53.8105C92.9384 53.9596 92.9796 54.1535 92.9796 54.3921V56.5654H92.3575V56.118H92.3319C92.2907 56.2004 92.2289 56.2813 92.1465 56.3609C92.0641 56.4404 91.9583 56.5065 91.8291 56.559C91.6998 56.6116 91.545 56.6379 91.3646 56.6379ZM91.5031 56.1265C91.6792 56.1265 91.8298 56.0917 91.9548 56.0221C92.0812 55.9525 92.1771 55.8616 92.2424 55.7494C92.3092 55.6357 92.3426 55.5143 92.3426 55.385V54.9632C92.3198 54.9859 92.2758 55.0072 92.2104 55.0271C92.1465 55.0455 92.0734 55.0619 91.991 55.0761C91.9086 55.0889 91.8283 55.1009 91.7502 55.1123C91.6721 55.1222 91.6068 55.1308 91.5542 55.1379C91.4306 55.1535 91.3177 55.1798 91.2154 55.2167C91.1146 55.2536 91.0336 55.3069 90.9725 55.3765C90.9129 55.4447 90.883 55.5356 90.883 55.6492C90.883 55.8069 90.9413 55.9262 91.0578 56.0072C91.1742 56.0867 91.3227 56.1265 91.5031 56.1265ZM94.4652 54.6222V56.5654H93.8282V53.2927H94.4397V53.8254H94.4802C94.5554 53.6521 94.6733 53.5129 94.8339 53.4078C94.9958 53.3026 95.1996 53.2501 95.4454 53.2501C95.6684 53.2501 95.8637 53.297 96.0313 53.3907C96.1989 53.483 96.3289 53.6208 96.4212 53.8041C96.5135 53.9873 96.5597 54.2139 96.5597 54.4838V56.5654H95.9226V54.5605C95.9226 54.3232 95.8608 54.1379 95.7373 54.0044C95.6137 53.8694 95.4439 53.8019 95.228 53.8019C95.0803 53.8019 94.9489 53.8339 94.8339 53.8978C94.7202 53.9617 94.63 54.0555 94.5633 54.1791C94.4979 54.3012 94.4652 54.449 94.4652 54.6222ZM99.8665 54.0917L99.2891 54.194C99.265 54.1201 99.2266 54.0498 99.1741 53.983C99.1229 53.9163 99.0533 53.8616 98.9652 53.819C98.8772 53.7764 98.7671 53.7551 98.635 53.7551C98.4546 53.7551 98.304 53.7955 98.1833 53.8765C98.0625 53.9561 98.0022 54.059 98.0022 54.1855C98.0022 54.2948 98.0427 54.3829 98.1236 54.4497C98.2046 54.5164 98.3353 54.5711 98.5157 54.6137L99.0356 54.733C99.3367 54.8026 99.5611 54.9099 99.7089 55.0548C99.8566 55.1997 99.9304 55.3879 99.9304 55.6194C99.9304 55.8154 99.8736 55.9901 99.76 56.1436C99.6478 56.2955 99.4908 56.4149 99.2891 56.5015C99.0888 56.5882 98.8566 56.6315 98.5924 56.6315C98.2259 56.6315 97.9269 56.5534 97.6954 56.3971C97.4638 56.2394 97.3218 56.0157 97.2692 55.7259L97.885 55.6322C97.9233 55.7927 98.0022 55.9142 98.1215 55.9965C98.2408 56.0775 98.3964 56.118 98.5881 56.118C98.7969 56.118 98.9638 56.0747 99.0888 55.988C99.2138 55.8999 99.2763 55.7927 99.2763 55.6663C99.2763 55.564 99.238 55.4781 99.1613 55.4085C99.086 55.3389 98.9702 55.2863 98.814 55.2508L98.26 55.1294C97.9546 55.0597 97.7287 54.949 97.5824 54.797C97.4375 54.645 97.3651 54.4525 97.3651 54.2195C97.3651 54.0264 97.4191 53.8573 97.527 53.7124C97.635 53.5676 97.7841 53.4546 97.9745 53.3737C98.1648 53.2913 98.3829 53.2501 98.6286 53.2501C98.9823 53.2501 99.2607 53.3268 99.4638 53.4802C99.6669 53.6322 99.8012 53.836 99.8665 54.0917ZM100.631 57.7927V53.2927H101.253V53.8232H101.306C101.343 53.7551 101.397 53.6762 101.466 53.5867C101.536 53.4972 101.632 53.4191 101.756 53.3524C101.879 53.2842 102.043 53.2501 102.246 53.2501C102.51 53.2501 102.746 53.3169 102.953 53.4504C103.161 53.5839 103.323 53.7764 103.441 54.0278C103.561 54.2792 103.62 54.5818 103.62 54.9355C103.62 55.2892 103.561 55.5924 103.443 55.8453C103.326 56.0967 103.164 56.2906 102.958 56.4269C102.752 56.5619 102.517 56.6294 102.252 56.6294C102.053 56.6294 101.891 56.596 101.764 56.5292C101.639 56.4624 101.541 56.3843 101.47 56.2948C101.399 56.2053 101.345 56.1258 101.306 56.0562H101.268V57.7927H100.631ZM101.255 54.9291C101.255 55.1592 101.289 55.3609 101.355 55.5342C101.422 55.7075 101.519 55.8431 101.645 55.9411C101.772 56.0377 101.926 56.086 102.11 56.086C102.3 56.086 102.459 56.0356 102.587 55.9347C102.715 55.8325 102.811 55.694 102.877 55.5193C102.943 55.3445 102.977 55.1478 102.977 54.9291C102.977 54.7132 102.944 54.5193 102.879 54.3474C102.815 54.1755 102.718 54.0399 102.589 53.9404C102.461 53.841 102.301 53.7913 102.11 53.7913C101.925 53.7913 101.769 53.8389 101.641 53.934C101.514 54.0292 101.419 54.162 101.353 54.3325C101.288 54.5029 101.255 54.7018 101.255 54.9291ZM105.286 56.6379C105.079 56.6379 104.892 56.5995 104.724 56.5228C104.556 56.4447 104.424 56.3318 104.326 56.184C104.229 56.0363 104.181 55.8552 104.181 55.6407C104.181 55.4561 104.216 55.3041 104.287 55.1847C104.358 55.0654 104.454 54.971 104.575 54.9014C104.696 54.8318 104.83 54.7792 104.98 54.7437C105.129 54.7082 105.281 54.6812 105.436 54.6627C105.632 54.64 105.791 54.6215 105.913 54.6073C106.035 54.5917 106.124 54.5669 106.179 54.5328C106.235 54.4987 106.262 54.4433 106.262 54.3666V54.3517C106.262 54.1656 106.21 54.0214 106.105 53.9191C106.001 53.8169 105.846 53.7657 105.64 53.7657C105.426 53.7657 105.257 53.8133 105.133 53.9085C105.011 54.0022 104.926 54.1066 104.879 54.2217L104.281 54.0853C104.352 53.8865 104.455 53.7259 104.592 53.6038C104.73 53.4802 104.888 53.3907 105.067 53.3353C105.246 53.2785 105.434 53.2501 105.632 53.2501C105.762 53.2501 105.901 53.2657 106.047 53.297C106.195 53.3268 106.333 53.3822 106.46 53.4632C106.59 53.5441 106.696 53.6599 106.778 53.8105C106.86 53.9596 106.902 54.1535 106.902 54.3921V56.5654H106.279V56.118H106.254C106.213 56.2004 106.151 56.2813 106.068 56.3609C105.986 56.4404 105.88 56.5065 105.751 56.559C105.622 56.6116 105.467 56.6379 105.286 56.6379ZM105.425 56.1265C105.601 56.1265 105.752 56.0917 105.877 56.0221C106.003 55.9525 106.099 55.8616 106.164 55.7494C106.231 55.6357 106.264 55.5143 106.264 55.385V54.9632C106.242 54.9859 106.198 55.0072 106.132 55.0271C106.068 55.0455 105.995 55.0619 105.913 55.0761C105.83 55.0889 105.75 55.1009 105.672 55.1123C105.594 55.1222 105.529 55.1308 105.476 55.1379C105.352 55.1535 105.24 55.1798 105.137 55.2167C105.036 55.2536 104.955 55.3069 104.894 55.3765C104.835 55.4447 104.805 55.5356 104.805 55.6492C104.805 55.8069 104.863 55.9262 104.98 56.0072C105.096 56.0867 105.245 56.1265 105.425 56.1265ZM107.75 56.5654V53.2927H108.366V53.8126H108.4C108.46 53.6365 108.565 53.498 108.715 53.3971C108.867 53.2948 109.039 53.2437 109.231 53.2437C109.271 53.2437 109.318 53.2451 109.371 53.248C109.427 53.2508 109.47 53.2543 109.501 53.2586V53.868C109.476 53.8609 109.43 53.8531 109.365 53.8445C109.3 53.8346 109.234 53.8296 109.169 53.8296C109.019 53.8296 108.884 53.8616 108.766 53.9255C108.65 53.988 108.558 54.0754 108.489 54.1876C108.421 54.2984 108.387 54.4248 108.387 54.5669V56.5654H107.75ZM111.346 56.6315C111.024 56.6315 110.746 56.5626 110.513 56.4248C110.281 56.2856 110.102 56.0903 109.976 55.8389C109.851 55.586 109.789 55.2899 109.789 54.9504C109.789 54.6151 109.851 54.3197 109.976 54.064C110.102 53.8083 110.279 53.6088 110.504 53.4653C110.732 53.3218 110.997 53.2501 111.301 53.2501C111.486 53.2501 111.665 53.2806 111.838 53.3417C112.012 53.4028 112.167 53.4987 112.305 53.6294C112.443 53.76 112.551 53.9298 112.631 54.1386C112.71 54.346 112.75 54.5981 112.75 54.895V55.1208H110.149V54.6436H112.126C112.126 54.4759 112.092 54.3275 112.024 54.1982C111.955 54.0676 111.86 53.9646 111.736 53.8893C111.614 53.814 111.47 53.7764 111.306 53.7764C111.127 53.7764 110.97 53.8204 110.837 53.9085C110.705 53.9951 110.602 54.1088 110.53 54.2494C110.459 54.3886 110.424 54.5399 110.424 54.7032V55.0761C110.424 55.2948 110.462 55.4809 110.539 55.6343C110.617 55.7877 110.725 55.9049 110.865 55.9859C111.004 56.0654 111.166 56.1052 111.352 56.1052C111.473 56.1052 111.583 56.0882 111.683 56.0541C111.782 56.0186 111.868 55.966 111.941 55.8964C112.013 55.8268 112.068 55.7409 112.107 55.6386L112.71 55.7472C112.661 55.9248 112.575 56.0803 112.45 56.2139C112.326 56.346 112.171 56.449 111.983 56.5228C111.797 56.5953 111.585 56.6315 111.346 56.6315ZM114.094 54.6222V56.5654H113.457V53.2927H114.069V53.8254H114.109C114.184 53.6521 114.302 53.5129 114.463 53.4078C114.625 53.3026 114.829 53.2501 115.074 53.2501C115.297 53.2501 115.493 53.297 115.66 53.3907C115.828 53.483 115.958 53.6208 116.05 53.8041C116.142 53.9873 116.189 54.2139 116.189 54.4838V56.5654H115.552V54.5605C115.552 54.3232 115.49 54.1379 115.366 54.0044C115.243 53.8694 115.073 53.8019 114.857 53.8019C114.709 53.8019 114.578 53.8339 114.463 53.8978C114.349 53.9617 114.259 54.0555 114.192 54.1791C114.127 54.3012 114.094 54.449 114.094 54.6222ZM118.422 56.6315C118.105 56.6315 117.832 56.5597 117.603 56.4163C117.376 56.2714 117.201 56.0718 117.079 55.8176C116.957 55.5633 116.896 55.2721 116.896 54.944C116.896 54.6116 116.958 54.3183 117.083 54.064C117.208 53.8083 117.385 53.6088 117.612 53.4653C117.839 53.3218 118.107 53.2501 118.415 53.2501C118.664 53.2501 118.885 53.2963 119.08 53.3886C119.275 53.4795 119.432 53.6073 119.551 53.7721C119.672 53.9369 119.743 54.1294 119.766 54.3495H119.146C119.112 54.1961 119.034 54.064 118.912 53.9532C118.791 53.8424 118.629 53.787 118.426 53.787C118.248 53.787 118.093 53.8339 117.959 53.9276C117.827 54.02 117.724 54.1521 117.65 54.324C117.576 54.4944 117.539 54.6961 117.539 54.9291C117.539 55.1677 117.576 55.3737 117.648 55.547C117.721 55.7203 117.823 55.8545 117.955 55.9497C118.088 56.0448 118.245 56.0924 118.426 56.0924C118.547 56.0924 118.656 56.0704 118.754 56.0264C118.853 55.9809 118.936 55.9163 119.003 55.8325C119.071 55.7487 119.119 55.6478 119.146 55.5299H119.766C119.743 55.7416 119.674 55.9305 119.559 56.0967C119.444 56.2629 119.29 56.3936 119.097 56.4887C118.905 56.5839 118.68 56.6315 118.422 56.6315ZM120.85 57.7927C120.755 57.7927 120.668 57.7849 120.59 57.7693C120.512 57.7551 120.454 57.7394 120.415 57.7224L120.569 57.2004C120.685 57.2316 120.789 57.2451 120.88 57.2409C120.971 57.2366 121.051 57.2025 121.121 57.1386C121.192 57.0747 121.254 56.9703 121.308 56.8254L121.387 56.608L120.189 53.2927H120.871L121.7 55.8325H121.734L122.563 53.2927H123.247L121.898 57.0022C121.836 57.1727 121.756 57.3169 121.66 57.4347C121.563 57.5541 121.448 57.6436 121.314 57.7032C121.181 57.7629 121.026 57.7927 120.85 57.7927Z" fill="black"/>
</svg>
