<svg width="24" height="24" viewBox="0 0 24 24" fill="none" xmlns="http://www.w3.org/2000/svg">
<path fill-rule="evenodd" clip-rule="evenodd" d="M7.82827 22C7.55582 21.5292 7.40011 20.9828 7.40011 20.4001C7.40011 19.5808 7.40011 18.5978 7.40011 17.2C7.40011 15.3889 8.03063 13.7252 9.08452 12.4158C8.85335 12.3852 8.61758 12.3695 8.37835 12.3695H6.35218C3.39634 12.3695 1 14.7658 1 17.7217C1 18.937 1 19.792 1 20.5043C1 21.3303 1.66969 22 2.49568 22H7.82827ZM10.6 22H21.8001C22.6836 22 23.4 21.2837 23.4 20.4001C23.4 19.5808 23.4 18.5978 23.4 17.2C23.4 13.8669 20.698 11.1651 17.3651 11.1651H15.035C11.702 11.1651 9.00004 13.8669 9.00004 17.2C9.00004 18.5978 9.00004 19.5808 9.00004 20.4001C9.00004 21.2837 9.71639 22 10.6 22ZM7.36536 4.39999C5.38795 4.39999 3.78265 6.0053 3.78265 7.9827C3.78265 9.95991 5.38795 11.5652 7.36536 11.5652C9.34257 11.5652 10.9479 9.95991 10.9479 7.9827C10.9479 6.0053 9.34257 4.39999 7.36536 4.39999ZM16.2 2C13.9924 2 12.2001 3.79231 12.2001 6.00012C12.2001 8.20772 13.9924 10 16.2 10C18.4076 10 20.1999 8.20772 20.1999 6.00012C20.1999 3.79231 18.4076 2 16.2 2Z" fill="black"/>
</svg>
