<svg width="24" height="24" viewBox="0 0 24 24" fill="none" xmlns="http://www.w3.org/2000/svg">
<path d="M21.2998 19.4205C21.2998 19.4205 21.2027 18.4275 20.8523 16.8711C20.5018 15.3137 18.8869 14.5543 18.8869 14.5543L15.1502 12.9583C15.1502 12.9583 15.267 13.4454 15.1502 14.3404C15.0614 15.0241 14.0305 18.0558 13.5476 19.4511C13.3057 17.6552 12.5801 16.1841 12.5801 16.1841C12.5801 15.9217 13.1058 15.3079 13.1058 15.3079C13.1058 15.1368 12.8327 14.7535 12.6245 14.4861L14.6434 12.8407L14.4682 11.7119C14.8186 11.1862 15.1494 9.70704 15.1494 9.70704C15.7137 9.9012 15.8108 8.65564 15.9671 8.10443C16.1234 7.55322 15.5393 7.44956 15.5393 7.44956C16.2403 5.25058 15.5196 4.04357 15.5196 4.04357C15.9474 3.53762 15.4028 2 15.4028 2C14.3316 2.70093 13.7096 2 11.7828 2C9.85605 2 9.33024 3.67418 9.33024 3.67418C7.53923 3.81075 8.68771 7.45042 8.68771 7.45042C8.68771 7.45042 8.37672 7.35334 8.43432 8.36527C8.49273 9.37719 9.13525 9.7474 9.13525 9.7474C9.46597 11.1682 9.89379 11.7326 9.89379 11.7326L9.67989 12.784L11.8165 14.5051C11.4101 14.807 11.2374 15.3245 11.2374 15.3245C11.4562 15.4561 11.7918 16.171 11.7918 16.171C11.2949 16.6021 10.9856 18.4285 10.8268 19.6815C10.2962 18.1266 9.33034 14.6843 9.25218 14.4187C9.15511 14.088 9.11562 12.9593 9.11562 12.9593L5.30084 14.5545C4.15236 15.2941 3.78215 16.3257 3.78215 16.3257C3.78215 16.3257 3.52876 17.4158 3.10095 18.9535C2.67314 20.4912 3.74348 20.8029 3.74348 20.8029C9.34929 22.9634 18.3998 21.6396 19.9375 21.1337C21.4759 20.6277 21.2999 19.4208 21.2999 19.4208L21.2998 19.4205Z" fill="black"/>
</svg>
