<svg width="24" height="24" viewBox="0 0 24 24" fill="none" xmlns="http://www.w3.org/2000/svg">
<path fill-rule="evenodd" clip-rule="evenodd" d="M5 2C3.34315 2 2 3.34315 2 5V19C2 20.6569 3.34315 22 5 22H19C20.6569 22 22 20.6569 22 19V5C22 3.34315 20.6569 2 19 2H5ZM10 8C10 7.44772 10.4477 7 11 7H17C17.5523 7 18 7.44772 18 8C18 8.55228 17.5523 9 17 9H11C10.4477 9 10 8.55228 10 8ZM11 11C10.4477 11 10 11.4477 10 12C10 12.5523 10.4477 13 11 13H17C17.5523 13 18 12.5523 18 12C18 11.4477 17.5523 11 17 11H11ZM10 16C10 15.4477 10.4477 15 11 15H17C17.5523 15 18 15.4477 18 16C18 16.5523 17.5523 17 17 17H11C10.4477 17 10 16.5523 10 16ZM7 9C7.55228 9 8 8.55228 8 8C8 7.44772 7.55228 7 7 7C6.44772 7 6 7.44772 6 8C6 8.55228 6.44772 9 7 9ZM8 12C8 12.5523 7.55228 13 7 13C6.44772 13 6 12.5523 6 12C6 11.4477 6.44772 11 7 11C7.55228 11 8 11.4477 8 12ZM7 17C7.55228 17 8 16.5523 8 16C8 15.4477 7.55228 15 7 15C6.44772 15 6 15.4477 6 16C6 16.5523 6.44772 17 7 17Z" fill="black"/>
</svg>
