<svg width="24" height="24" viewBox="0 0 24 24" fill="none" xmlns="http://www.w3.org/2000/svg">
<path d="M20.1417 21.6339C19.9875 21.8625 19.7282 22 19.4523 22H4.83228C4.5563 22 4.29706 21.8625 4.14282 21.6339C3.98858 21.4053 3.95698 21.1154 4.0592 20.858L5.77914 16.5577C5.95012 16.1321 6.43608 15.9221 6.86166 16.0941C7.28724 16.265 7.49724 16.7482 7.32533 17.1766L6.06255 20.3358H18.2248L16.962 17.1766C16.7911 16.751 16.9973 16.266 17.4257 16.0941C17.8513 15.9249 18.3363 16.1322 18.5082 16.5577L20.2282 20.858C20.3276 21.1154 20.2969 21.4053 20.1417 21.6339ZM5.12496 9.01728C5.12496 5.14707 8.27203 2 12.1422 2C16.0125 2 19.1595 5.14707 19.1595 9.01728C19.1595 13.9196 12.6394 19.0722 12.3616 19.2887C12.2974 19.3389 12.2185 19.3649 12.1423 19.3649C12.0642 19.3649 11.988 19.3389 11.9211 19.2887C11.6451 19.0722 5.12496 13.9004 5.12496 9.01728ZM9.7635 9.01728C9.7635 10.3302 10.8293 11.396 12.1422 11.396C13.4552 11.396 14.521 10.3302 14.521 9.01728C14.521 7.70434 13.4552 6.63854 12.1422 6.63854C10.8293 6.63854 9.7635 7.70434 9.7635 9.01728Z" fill="black"/>
</svg>
