<svg width="24" height="24" viewBox="0 0 24 24" fill="none" xmlns="http://www.w3.org/2000/svg">
<path fill-rule="evenodd" clip-rule="evenodd" d="M16.1104 7.38065C16.5192 7.49027 16.8607 7.75086 17.071 8.11478C17.4762 8.81657 17.2795 9.70344 16.6433 10.1743L15.0735 7.45529C15.3987 7.31422 15.7609 7.28726 16.1113 7.38071L16.1104 7.38065ZM6.32313 17.6496L8.51384 16.3844L5.6276 11.392L3.43958 12.6554C2.77554 13.0382 2.3002 13.6609 2.10071 14.4067C1.90033 15.1534 2.00097 15.9298 2.38467 16.5938C2.91842 17.5175 3.88978 18.0351 4.88721 18.0351C5.37603 18.0351 5.87114 17.9111 6.32403 17.6496L6.32313 17.6496ZM10.8941 20.5133L9.05387 17.3269L7.33671 18.318L9.17609 21.5044C9.45015 21.978 10.0576 22.1406 10.5311 21.8675C10.7585 21.7363 10.922 21.5215 10.9912 21.2654C11.0604 21.0084 11.0253 20.7416 10.8941 20.5133ZM17.7358 14.2396L12.0981 4.47577C11.9804 4.2718 11.7881 4.16037 11.5545 4.16037H11.541C11.302 4.16486 11.1079 4.28348 10.9956 4.49553C10.7979 4.86934 10.6065 5.26831 10.4043 5.69063C9.55339 7.46712 8.5973 9.46457 6.55931 10.8314L9.46441 15.8563C11.665 14.7762 13.8719 14.9461 15.8352 15.0979C16.3034 15.1339 16.7446 15.168 17.1678 15.1833C17.4077 15.1923 17.6072 15.0835 17.7303 14.8787C17.8543 14.6729 17.8561 14.4456 17.7366 14.2389L17.7358 14.2396ZM16.3188 4.21422C16.1687 4.47391 16.2577 4.80638 16.5174 4.95645C16.6027 5.00587 16.6962 5.02924 16.7887 5.02924C16.9765 5.02924 17.1589 4.93219 17.2596 4.75787L18.3819 2.81516C18.532 2.55547 18.443 2.223 18.1833 2.07293C17.9236 1.92287 17.5912 2.01183 17.4411 2.27151L16.3188 4.21422ZM22.8596 10.1717C22.8596 9.87153 22.617 9.62891 22.315 9.62891H20.0722C19.7721 9.62891 19.5295 9.87242 19.5295 10.1726C19.5295 10.4727 19.773 10.7153 20.0722 10.7153H22.315C22.617 10.7153 22.8596 10.4718 22.8596 10.1717ZM21.5611 5.52151C21.4102 5.26182 21.0795 5.17287 20.8198 5.32292L18.8295 6.4713C18.5698 6.62136 18.4808 6.95385 18.6309 7.21353C18.7315 7.38785 18.914 7.4849 19.1018 7.4849C19.1943 7.4849 19.2878 7.46154 19.3731 7.41212L21.3635 6.26284C21.6231 6.11278 21.713 5.7803 21.562 5.52061L21.5611 5.52151Z" fill="black"/>
</svg>
