<svg width="24" height="24" viewBox="0 0 24 24" fill="none" xmlns="http://www.w3.org/2000/svg">
<path fill-rule="evenodd" clip-rule="evenodd" d="M22.6993 9.33652H1.4157C1.18658 9.33749 1.00097 9.5231 1 9.75318V9.9707C1.00097 10.1989 1.18658 10.3845 1.4157 10.3854H22.6993C22.9284 10.3845 23.1141 10.1989 23.115 9.96974V9.75319C23.1141 9.5231 22.9284 9.33748 22.6993 9.33652ZM5.26531 20.335C5.19764 19.9889 5.19764 19.6331 5.26531 19.286H3.81134C3.56869 19.287 3.37246 19.4833 3.37053 19.7269V19.8951C3.37246 20.1377 3.56871 20.334 3.81134 20.3349L5.26531 20.335ZM17.7284 18.2632C17.0091 17.544 15.8896 17.4164 15.0253 17.9529C14.162 18.4895 13.7812 19.55 14.107 20.5129V20.5158C14.4985 21.6566 15.7398 22.2646 16.8815 21.877C18.0232 21.4883 18.6361 20.2499 18.2523 19.1074C18.145 18.7893 17.9652 18.5003 17.7274 18.2634L17.7284 18.2632ZM13.5115 20.335C13.4438 19.9889 13.4438 19.6331 13.5115 19.286H10.6035C10.6712 19.6331 10.6712 19.9888 10.6035 20.335H13.5115ZM18.8497 19.287V19.286C18.9174 19.6331 18.9174 19.9888 18.8497 20.335H20.3037C20.5463 20.334 20.7435 20.1377 20.7445 19.8941V19.7259C20.7426 19.4833 20.5463 19.287 20.3037 19.2861L18.8497 19.287ZM2.80879 14.96L2.4627 13.4915H9.13512H9.13415C9.2782 13.4867 9.39228 13.3697 9.39228 13.2257C9.39228 13.0826 9.2782 12.9647 9.13415 12.9608H2.338L1.85657 10.9162H22.2587L20.4102 18.7612H20.4112C20.3754 18.7573 20.3397 18.7554 20.3039 18.7554H18.6885C18.2622 17.748 17.2751 17.0926 16.1807 17.0926C15.0863 17.0926 14.0994 17.748 13.673 18.7554H10.4421C10.0157 17.748 9.02873 17.0926 7.93433 17.0926C6.83993 17.0926 5.85294 17.748 5.42658 18.7554H3.81117C3.7754 18.7554 3.73964 18.7573 3.70387 18.7612L2.93337 15.4907H6.66024C6.73177 15.4926 6.80138 15.4655 6.85358 15.4162C6.90482 15.3659 6.93382 15.2973 6.93382 15.2258C6.93382 15.1533 6.90482 15.0846 6.85358 15.0344C6.80138 14.9851 6.73177 14.958 6.66024 14.9599L2.80879 14.96ZM20.7813 6.95166V6.94683C20.7813 6.94103 20.7833 6.93523 20.7842 6.9304L20.9476 5.94046L19.9383 5.32561H19.9374C19.9383 5.33335 19.9383 5.34205 19.9374 5.34978C19.9122 5.69975 19.8842 6.04969 19.8581 6.39966C19.8475 6.54563 19.7199 6.65486 19.5749 6.64327C19.4289 6.63264 19.3196 6.506 19.3303 6.36099L19.4047 5.37685L19.1079 4.70206L18.06 5.22989L17.9536 5.83217V5.8312C17.9246 5.97235 17.7893 6.06419 17.6481 6.03905C17.507 6.01488 17.4103 5.88244 17.4306 5.74034L17.6655 4.40043L16.8622 3.49848L15.1839 3.55358L15.1849 3.55455C15.038 3.55842 14.9162 3.44434 14.9113 3.29836C14.9075 3.15238 15.0215 3.02961 15.1675 3.02573L15.3145 3.02089L14.9809 2.60037L13.671 3.71694C13.6594 3.72854 13.6468 3.74014 13.6323 3.74981L13.0078 4.28054C12.9547 4.32888 12.885 4.35305 12.8135 4.34821C12.7429 4.34338 12.6762 4.30954 12.6308 4.25541C12.5844 4.20127 12.5622 4.1307 12.5689 4.05916C12.5757 3.98859 12.6105 3.92382 12.6666 3.87838L13.1499 3.46654L12.537 2.26295L11.317 2L10.8762 2.80818C10.8423 2.88069 10.7756 2.93386 10.6973 2.95223L9.64937 3.19391L8.86052 4.91276H8.85955C8.83152 4.9785 8.77835 5.02974 8.71164 5.05584C8.64493 5.08194 8.57146 5.08 8.50572 5.05004C8.44095 5.02007 8.39068 4.96593 8.36652 4.89826C8.34235 4.83155 8.34718 4.75712 8.37812 4.69331L8.76288 3.85516L7.94212 2.66703L7.40075 2.24265L6.12272 2.74437L5.79015 3.79618L5.9806 3.67631V3.67534C6.07147 3.61927 6.18651 3.62217 6.27352 3.68307L7.31954 4.36558C7.44231 4.44486 7.47711 4.60824 7.39784 4.73102C7.3176 4.85379 7.15422 4.8886 7.03144 4.80836L6.11884 4.21479L5.47499 4.61888H5.47596C5.46629 4.62565 5.45566 4.63242 5.44502 4.63822L4.75672 5.07035L4.60687 5.83503L5.18111 5.88046C5.25168 5.88626 5.31742 5.91913 5.36286 5.97424L6.18168 6.88394C6.27836 6.99318 6.26869 7.15946 6.16042 7.25709C6.05214 7.35473 5.88586 7.34603 5.78726 7.23873L5.0332 6.40057L3.53862 6.28263L2.52547 7.56935L2.96339 8.80677H22.2206V7.42435L21.2635 7.28417L21.163 7.89127C21.1398 8.03629 21.0035 8.13393 20.8594 8.11072C20.7144 8.08656 20.6168 7.95121 20.64 7.80716L20.7813 6.95166ZM8.34525 7.87876C8.29885 8.01507 8.1519 8.08855 8.01464 8.04601C7.87736 8.00251 7.79906 7.8575 7.83966 7.71926L8.42647 5.85927C8.45257 5.77806 8.51444 5.71425 8.59564 5.68719L10.1202 5.08974C10.213 5.05397 10.3174 5.07234 10.3919 5.13904L11.0715 5.67074C11.0927 5.68717 11.1111 5.7065 11.1266 5.72874L12.0005 6.9942C12.0411 7.0522 12.0575 7.12374 12.045 7.19335C12.0324 7.26295 11.9928 7.32482 11.9348 7.36446C11.8768 7.40506 11.8043 7.42053 11.7346 7.407C11.666 7.39443 11.6041 7.35383 11.5645 7.29486L10.7138 6.06226L10.1724 5.63884L8.89437 6.1396L8.34525 7.87876ZM16.9067 7.78306C16.9241 7.85266 16.9115 7.9271 16.8729 7.988C16.8332 8.04891 16.7714 8.09144 16.7008 8.10595C16.6293 8.11948 16.5558 8.10401 16.4968 8.06148C16.4378 8.01991 16.3982 7.9561 16.3876 7.88456L16.1788 6.82793L14.8166 5.97141L13.904 6.56498C13.8451 6.61041 13.7706 6.62878 13.6981 6.61622C13.6256 6.60365 13.5608 6.56111 13.5212 6.49924C13.4806 6.43737 13.468 6.36196 13.4864 6.29042C13.5048 6.21889 13.5521 6.15798 13.6169 6.12318L14.6639 5.44067L14.6629 5.4397C14.7509 5.3788 14.8659 5.37686 14.9559 5.43293L16.5442 6.43158C16.6138 6.46928 16.6621 6.53599 16.6776 6.61333L16.9067 7.78212L16.9067 7.78306ZM10.0081 19.1084V19.1055C9.61947 17.9609 8.37624 17.347 7.23058 17.7356C6.085 18.1243 5.47208 19.3685 5.86071 20.5132V20.5161C6.16234 21.4035 6.99661 22 7.93339 22C8.87113 22 9.70443 21.4035 10.0061 20.5161V20.5132C10.1598 20.0578 10.1598 19.5648 10.0061 19.1095L10.0081 19.1084Z" fill="black"/>
</svg>
