<svg width="24" height="24" viewBox="0 0 24 24" fill="none" xmlns="http://www.w3.org/2000/svg">
<path d="M9.30657 10.886C9.42351 10.8184 9.52062 10.7213 9.58812 10.6044C9.65562 10.4874 9.69115 10.3548 9.69112 10.2197V3.29785C9.69043 3.17523 9.66043 3.05456 9.60363 2.94589C9.54683 2.83722 9.46487 2.7437 9.36458 2.67314C9.2643 2.60259 9.14859 2.55703 9.02712 2.54027C8.90565 2.52352 8.78194 2.53605 8.66629 2.57682C6.42147 3.37131 4.53366 4.94049 3.34223 7.00228C2.1508 9.06406 1.7339 11.4832 2.16646 13.8249C2.18888 13.946 2.24005 14.0599 2.31567 14.1571C2.39129 14.2543 2.48914 14.3319 2.601 14.3834C2.7018 14.4306 2.81178 14.4549 2.92306 14.4546C3.05805 14.4546 3.19067 14.4191 3.30761 14.3517L9.30657 10.886ZM8.15292 4.46303V9.77558L3.54987 12.4318C3.53834 12.2867 3.53834 12.1406 3.53834 11.9983C3.5397 10.4393 3.97123 8.91088 4.78542 7.58138C5.59961 6.25188 6.76488 5.17283 8.15292 4.46303ZM21.9967 11.9983C21.9974 14.1932 21.2759 16.3274 19.9434 18.0716C18.6109 19.8157 16.7414 21.073 14.6235 21.6492C12.5055 22.2255 10.2568 22.0889 8.22428 21.2603C6.19173 20.4318 4.48831 18.9574 3.37683 17.0647C3.32501 16.9773 3.29104 16.8804 3.27687 16.7798C3.2627 16.6792 3.26861 16.5767 3.29427 16.4784C3.31992 16.3801 3.36481 16.2878 3.42634 16.2069C3.48787 16.126 3.56482 16.0582 3.65274 16.0072L11.2293 11.5974V2.7691C11.2293 2.56512 11.3103 2.3695 11.4546 2.22526C11.5988 2.08103 11.7944 2 11.9984 2C13.7432 2.00089 15.4574 2.45813 16.9708 3.32631C18.4842 4.1945 19.7442 5.44344 20.6258 6.94914C20.6363 6.96452 20.6459 6.97991 20.6556 6.99625C20.6652 7.01259 20.6748 7.03182 20.6834 7.04912C21.5461 8.55576 21.9989 10.2621 21.9967 11.9983Z" fill="black"/>
</svg>
