<svg width="24" height="24" viewBox="0 0 24 24" fill="none" xmlns="http://www.w3.org/2000/svg">
<path d="M2.01219 11.9866L1 10.9733L4.21761 4L7.24563 6.75199L2.42088 11.5778L2.41872 11.58L2.01219 11.9866ZM5.07361 13.1443C4.84832 12.8328 4.6144 12.5115 4.27164 12.2572C4.00323 12.0577 3.34245 11.7904 2.94577 11.6395L6.8963 7.68896L7.52043 8.09536C7.83841 8.30017 8.22863 8.36268 8.59512 8.26352L10.9838 7.61351C11.3115 7.52404 11.6694 7.59626 11.941 7.80862L14.2101 9.58291C14.3211 9.66914 14.388 9.7985 14.3934 9.93756C14.443 11.1686 14.6521 11.9436 14.7922 12.4567C14.8644 12.7219 14.9205 12.9299 14.9043 13.0291C14.8752 13.0948 14.5992 13.2371 14.2058 13.2113C13.8641 13.1886 13.0298 13.0043 12.6805 11.7754C12.2957 10.4226 11.746 10.4755 11.6403 10.4992C11.6253 10.5024 11.6102 10.5078 11.5961 10.5153C10.6368 10.9799 9.2096 11.285 9.19558 11.2882C9.1557 11.2968 9.11797 11.3173 9.08887 11.3475L6.32603 14.2149C5.71159 14.0134 5.39899 13.5919 5.07453 13.1445L5.07361 13.1443ZM15.5446 19.8944L15.08 19.9914C14.9259 20.0226 14.7707 19.9677 14.6715 19.8459L13.9514 18.9598C13.9503 18.9587 13.9503 18.9566 13.9482 18.9555C13.9471 18.9544 13.946 18.9544 13.946 18.9533L13.6507 18.5911C13.5321 18.4456 13.4685 18.2624 13.4696 18.0748C13.4717 17.8247 13.6345 17.607 13.8738 17.5337L14.2295 17.4248L16.0189 19.3554L15.8195 19.6971C15.7602 19.7985 15.66 19.8718 15.5446 19.8955L15.5446 19.8944ZM17.3426 18.6644C17.3017 18.8186 17.1788 18.9339 17.0225 18.9652L16.3488 19.101L14.512 17.1187L14.5928 16.4741C14.6165 16.2844 14.734 16.1194 14.9054 16.0332L15.2956 15.8392C16.0901 16.6056 17.2521 17.7406 17.513 18.0338L17.3437 18.6644L17.3426 18.6644ZM18.399 17.6846L17.8201 17.7687C17.6067 17.5121 17.0343 16.9419 15.5597 15.5201L15.6599 15.0663C15.7182 14.8033 15.9553 14.6179 16.2194 14.6179C16.2442 14.6179 16.269 14.62 16.2938 14.6233L16.9028 14.7041L18.7569 16.5711V17.2718C18.7569 17.4777 18.6027 17.6555 18.399 17.6846ZM19.8865 15.0275L19.8521 15.5535C19.8424 15.699 19.7604 15.8262 19.6311 15.8952L19.0005 16.2304L17.2327 14.4497L17.3318 14.1231C17.4062 13.8805 17.625 13.7178 17.8784 13.7178H18.5607L19.7335 14.6771C19.837 14.7623 19.8941 14.8927 19.8855 15.0274L19.8865 15.0275ZM20.8373 12.2572C20.4966 12.5127 20.2638 12.8328 20.0375 13.1432C19.8413 13.4127 19.6516 13.666 19.4036 13.873L18.7676 13.3524C18.731 13.3222 18.6846 13.3049 18.6361 13.3049H17.8794C17.4429 13.3049 17.0645 13.5852 16.9373 14.0023L16.8532 14.2794L16.3487 14.2125C15.8475 14.1457 15.3657 14.482 15.2557 14.9779L15.1522 15.4478L14.72 15.6634C14.4246 15.8111 14.2231 16.0946 14.1821 16.4234L14.1066 17.0303L13.7542 17.138C13.3413 17.2652 13.0621 17.6393 13.0578 18.0715C13.0546 18.355 13.1527 18.6321 13.3316 18.853L13.5106 19.0729L12.6213 19.8717C12.5286 19.9547 12.41 20 12.286 20H11.8699C11.6802 20 11.5088 19.8932 11.4237 19.7229L11.1736 19.2195L11.8117 18.6029C11.8937 18.5232 11.8958 18.3927 11.8171 18.3097C11.7374 18.2278 11.6069 18.2257 11.5239 18.3044L10.82 18.9845L9.67311 19.2325C9.44674 19.282 9.21823 19.1689 9.1169 18.9597L8.80753 18.3033L10.474 16.8793C10.5603 16.8049 10.571 16.6745 10.4967 16.5872C10.4223 16.4999 10.2919 16.4912 10.2045 16.5645L8.47013 18.0478L7.76193 18.1006C7.51184 18.1146 7.28331 17.9443 7.23591 17.6931L7.09362 16.917L8.96816 15.1632C9.05116 15.0856 9.05548 14.9541 8.97787 14.87C8.90025 14.787 8.76875 14.7827 8.68467 14.8603L6.79828 16.6249L6.21834 16.5634C5.96395 16.5376 5.77315 16.3252 5.77315 16.0697V15.7862C5.77315 15.5275 5.87555 15.2742 6.05448 15.091L9.34107 11.6794C9.62997 11.6147 10.8308 11.3334 11.7265 10.9108C11.7934 10.9334 12.0467 11.0703 12.2806 11.8896C12.6633 13.2348 13.6259 13.6692 14.402 13.6261C14.8892 13.5992 15.2622 13.3847 15.3096 13.1033C15.342 12.9093 15.2816 12.6862 15.19 12.3488C15.0563 11.854 14.8526 11.1059 14.8052 9.92126C14.7944 9.6604 14.6704 9.41894 14.4634 9.25726L12.8163 7.96911L13.0211 7.8085C13.2906 7.59723 13.6485 7.52501 13.9794 7.61555L16.3649 8.26448C16.4792 8.29574 16.5967 8.31083 16.7142 8.31083C16.9707 8.31083 17.224 8.23645 17.4418 8.09524L18.0627 7.68992L22.0543 11.6816C21.6199 11.8508 21.0745 12.0826 20.8373 12.2583L20.8373 12.2572ZM22.9457 11.9866L22.5782 11.6191C22.5771 11.618 22.5749 11.6158 22.5738 11.6147L17.7124 6.75329L20.7404 4.0013L23.958 10.9746L22.9458 11.9879L22.9457 11.9866Z" fill="black"/>
</svg>
