<svg width="100" height="40" viewBox="0 0 100 40" fill="none" xmlns="http://www.w3.org/2000/svg">
<path d="M75.9072 22.0508C75.6169 22.1897 75.35 22.3728 75.1161 22.5937C74.5945 23.0881 74.1951 23.8287 74.0536 24.9203L73.757 24.5616L71.6475 22.0101L70.8351 21.0252L70.1022 20.1391L56.8832 4.13778L43.7242 19.001L42.0858 20.8545L39.8116 23.4235C39.7693 22.8341 39.5771 22.2653 39.2535 21.771C38.9298 21.2766 38.4852 20.8731 37.9619 20.5986L40.211 18.0587L41.5061 16.591L55.7024 0.548968C55.8576 0.372683 56.0494 0.232292 56.2643 0.137543C56.4793 0.0427926 56.7123 -0.00404725 56.9471 0.000273984C57.1814 0.00370732 57.4122 0.0574147 57.624 0.157763C57.8357 0.258112 58.0234 0.402762 58.1744 0.581929L71.6436 16.8877L72.3978 17.8028L72.8748 18.3844L73.7531 19.4469L75.9072 22.0508Z" fill="#0BB501"/>
<path d="M66.7016 21.4091V32.3597C66.7016 32.6199 66.5982 32.8694 66.4142 33.0534C66.2302 33.2374 65.9807 33.3407 65.7205 33.3407H59.394V24.5733C59.3943 24.5381 59.3876 24.5031 59.3742 24.4706C59.3608 24.438 59.3411 24.4084 59.3162 24.3835C59.2914 24.3586 59.2618 24.3389 59.2292 24.3255C59.1966 24.3122 59.1617 24.3054 59.1265 24.3057H54.7486C54.7133 24.3054 54.6784 24.3122 54.6459 24.3255C54.6133 24.3389 54.5837 24.3586 54.5588 24.3835C54.5339 24.4084 54.5142 24.438 54.5008 24.4706C54.4875 24.5031 54.4807 24.5381 54.481 24.5733V33.3485H47.2762C47.1473 33.3488 47.0196 33.3235 46.9005 33.2743C46.7813 33.2251 46.6731 33.1529 46.5819 33.0617C46.4908 32.9706 46.4185 32.8623 46.3693 32.7432C46.3201 32.624 46.2949 32.4963 46.2952 32.3674V21.4265C46.2967 21.1875 46.3841 20.957 46.5414 20.777L47.2762 19.9472L56.0902 9.98535C56.1832 9.87822 56.2985 9.7928 56.4281 9.73511C56.5577 9.67741 56.6983 9.64885 56.8401 9.65144C56.9819 9.65403 57.1215 9.6877 57.2488 9.75009C57.3762 9.81247 57.4884 9.90205 57.5773 10.0125L65.7845 19.9472L66.4747 20.7828C66.6203 20.9591 66.7005 21.1804 66.7016 21.4091Z" fill="#076300"/>
<path d="M99.086 16.1431L93.1008 31.5492C92.8715 32.1392 92.4692 32.6461 91.9468 33.0035C91.4243 33.3609 90.8061 33.5521 90.1732 33.5521H89.0796C88.4469 33.552 87.829 33.3607 87.3069 33.0033C86.7848 32.6459 86.3829 32.1391 86.1539 31.5492L80.1667 16.1431H86.1074L89.6438 27.2683L93.1803 16.1431H99.086Z" fill="#076300"/>
<path d="M11.6673 16.0287V21.8317C11.6673 21.8317 6.37226 20.3873 6.34317 25.8102C6.31409 31.2332 6.34317 33.3485 6.34317 33.3485H0.926027V25.9809C0.926027 25.9809 0.123343 16.0287 11.6673 16.0287Z" fill="#076300"/>
<path d="M79.3118 16.0287V21.8317C79.3118 21.8317 77.4311 21.3179 75.9072 22.0508C75.6164 22.1889 75.3494 22.3721 75.1161 22.5937C74.5965 23.0881 74.1951 23.8287 74.0536 24.9203C74.0153 25.2148 73.9959 25.5114 73.9954 25.8083C73.9954 25.9925 73.9954 26.1709 73.9954 26.3492C73.9799 31.3728 73.9954 33.3291 73.9954 33.3291H68.5802V25.9615C68.5141 24.2576 68.8663 22.5635 69.6059 21.0271C69.7568 20.7219 69.9257 20.4261 70.1119 20.141C70.538 19.488 71.0566 18.9002 71.6514 18.3961C71.8937 18.1874 72.1482 17.9932 72.4133 17.8144C73.978 16.7519 76.196 16.0287 79.3118 16.0287Z" fill="#076300"/>
<path d="M20.6344 29.9788C17.92 29.56 17.162 27.0705 17.162 27.0705C27.8857 23.5495 26.0516 16.4805 26.0516 16.4805C25.1849 16.0384 19.3083 14.6134 15.6768 17.6089C12.0453 20.6044 11.9445 25.4322 12.8286 28.164C15.6768 36.7706 25.9605 32.8754 25.9605 32.8754V28.8232C25.4447 29.2168 23.3605 30.3937 20.6344 29.9788ZM18.7712 19.8502C19.9481 18.8808 21.8501 19.3422 22.1312 19.4838C22.1312 19.4838 22.8738 22.3455 17.8483 23.2703C17.5614 22.3862 17.5885 20.8196 18.7712 19.8502Z" fill="#076300"/>
<path d="M43.7241 19.001C42.7663 17.4526 41.3456 16.2449 39.6632 15.5488C37.9808 14.8528 36.1221 14.7037 34.3503 15.1228C32.5785 15.5419 30.9835 16.5079 29.7912 17.8839C28.599 19.2599 27.8699 20.9761 27.7072 22.7895C27.682 23.0454 27.6704 23.3033 27.6704 23.5651V39.5625C27.6704 39.5625 31.0576 39.7099 32.0406 35.8787V31.1014C33.7158 32.0614 35.6634 32.4352 37.575 32.1633C39.4866 31.8915 41.2529 30.9896 42.5941 29.6006C43.9352 28.2116 44.7746 26.4148 44.9793 24.4949C45.184 22.5749 44.7423 20.6415 43.7241 19.001ZM36.3468 27.1442C35.6698 27.1447 35.0075 26.9475 34.441 26.5769C33.8746 26.2063 33.4286 25.6784 33.158 25.0579C32.8873 24.4375 32.8036 23.7515 32.9173 23.0842C33.0309 22.4168 33.3369 21.7972 33.7977 21.3014C34.2585 20.8055 34.8541 20.4549 35.5113 20.2927C36.1685 20.1305 36.8587 20.1637 37.4974 20.3883C38.136 20.6128 38.6951 21.0189 39.1062 21.5567C39.5173 22.0945 39.7624 22.7406 39.8115 23.4158C39.8115 23.4991 39.8115 23.5825 39.8115 23.6678C39.8133 24.1244 39.725 24.5769 39.5518 24.9993C39.3786 25.4218 39.1239 25.806 38.8021 26.1299C38.4803 26.4539 38.0978 26.7112 37.6765 26.8873C37.2552 27.0633 36.8034 27.1545 36.3468 27.1558V27.1442Z" fill="#076300"/>
<path d="M56.5925 17.3763H55.2566V18.7121H56.5925V17.3763Z" fill="white"/>
<path d="M56.5925 19.1096H55.2566V20.4455H56.5925V19.1096Z" fill="white"/>
<path d="M58.2734 17.3763H56.9375V18.7121H58.2734V17.3763Z" fill="white"/>
<path d="M58.2734 19.1096H56.9375V20.4455H58.2734V19.1096Z" fill="white"/>
<path d="M36.2726 36.2076V35.8014H38.6929V36.2076H37.7171V38.9287H37.2468V36.2076H36.2726ZM38.9475 38.9287V36.5832H39.3888V36.9558H39.4132C39.456 36.8296 39.5313 36.7303 39.6392 36.658C39.7482 36.5847 39.8713 36.5481 40.0088 36.5481C40.0373 36.5481 40.0709 36.5491 40.1095 36.5511C40.1492 36.5532 40.1803 36.5557 40.2027 36.5588V36.9955C40.1844 36.9904 40.1518 36.9848 40.105 36.9787C40.0581 36.9716 40.0113 36.968 39.9645 36.968C39.8566 36.968 39.7604 36.9909 39.6759 37.0367C39.5924 37.0815 39.5262 37.1441 39.4774 37.2245C39.4285 37.3039 39.4041 37.3946 39.4041 37.4963V38.9287H38.9475ZM42.0836 37.956V36.5832H42.5417V38.9287H42.0927V38.5225H42.0683C42.0143 38.6477 41.9278 38.752 41.8087 38.8355C41.6906 38.918 41.5435 38.9592 41.3674 38.9592C41.2167 38.9592 41.0834 38.9261 40.9673 38.86C40.8523 38.7928 40.7617 38.6935 40.6955 38.5622C40.6304 38.4309 40.5978 38.2685 40.5978 38.0751V36.5832H41.0544V38.0201C41.0544 38.1799 41.0986 38.3072 41.1872 38.4019C41.2758 38.4965 41.3908 38.5439 41.5323 38.5439C41.6178 38.5439 41.7028 38.5225 41.7873 38.4797C41.8728 38.437 41.9436 38.3723 41.9996 38.2858C42.0566 38.1993 42.0846 38.0893 42.0836 37.956ZM44.25 36.5832V36.9497H42.9688V36.5832H44.25ZM43.3124 36.0213H43.769V38.24C43.769 38.3286 43.7822 38.3952 43.8087 38.44C43.8351 38.4838 43.8692 38.5138 43.911 38.5301C43.9537 38.5454 44.0001 38.553 44.0499 38.553C44.0866 38.553 44.1186 38.5505 44.1461 38.5454C44.1736 38.5403 44.195 38.5362 44.2103 38.5332L44.2927 38.9103C44.2663 38.9205 44.2286 38.9307 44.1797 38.9409C44.1309 38.9521 44.0698 38.9582 43.9965 38.9592C43.8764 38.9612 43.7644 38.9399 43.6606 38.8951C43.5567 38.8503 43.4727 38.7811 43.4086 38.6874C43.3445 38.5937 43.3124 38.4762 43.3124 38.3347V36.0213ZM45.262 37.5361V38.9287H44.8054V35.8014H45.2559V36.965H45.2849C45.3399 36.8387 45.4238 36.7385 45.5368 36.6641C45.6498 36.5898 45.7974 36.5527 45.9797 36.5527C46.1405 36.5527 46.281 36.5858 46.4011 36.6519C46.5223 36.7181 46.6159 36.8168 46.6821 36.9482C46.7493 37.0785 46.7829 37.2413 46.7829 37.4368V38.9287H46.3263V37.4918C46.3263 37.3197 46.282 37.1864 46.1934 37.0917C46.1049 36.996 45.9817 36.9482 45.8239 36.9482C45.716 36.9482 45.6193 36.9711 45.5338 37.0169C45.4493 37.0627 45.3826 37.1299 45.3337 37.2184C45.2859 37.306 45.262 37.4119 45.262 37.5361ZM47.6929 38.9577C47.6095 38.9577 47.5377 38.9282 47.4776 38.8691C47.4176 38.8091 47.3875 38.7368 47.3875 38.6523C47.3875 38.5688 47.4176 38.4975 47.4776 38.4385C47.5377 38.3784 47.6095 38.3484 47.6929 38.3484C47.7764 38.3484 47.8482 38.3784 47.9083 38.4385C47.9683 38.4975 47.9983 38.5688 47.9983 38.6523C47.9983 38.7083 47.9841 38.7597 47.9556 38.8065C47.9281 38.8523 47.8915 38.889 47.8456 38.9164C47.7998 38.9439 47.7489 38.9577 47.6929 38.9577ZM48.3454 36.2076V35.8014H50.7656V36.2076H49.7899V38.9287H49.3196V36.2076H48.3454ZM51.0203 38.9287V36.5832H51.4616V36.9558H51.486C51.5287 36.8296 51.6041 36.7303 51.712 36.658C51.8209 36.5847 51.9441 36.5481 52.0815 36.5481C52.11 36.5481 52.1436 36.5491 52.1823 36.5511C52.222 36.5532 52.253 36.5557 52.2754 36.5588V36.9955C52.2571 36.9904 52.2245 36.9848 52.1777 36.9787C52.1309 36.9716 52.0841 36.968 52.0372 36.968C51.9293 36.968 51.8331 36.9909 51.7486 37.0367C51.6652 37.0815 51.599 37.1441 51.5501 37.2245C51.5013 37.3039 51.4768 37.3946 51.4768 37.4963V38.9287H51.0203ZM54.1563 37.956V36.5832H54.6144V38.9287H54.1655V38.5225H54.141C54.0871 38.6477 54.0006 38.752 53.8815 38.8355C53.7634 38.918 53.6163 38.9592 53.4402 38.9592C53.2895 38.9592 53.1561 38.9261 53.0401 38.86C52.925 38.7928 52.8344 38.6935 52.7683 38.5622C52.7031 38.4309 52.6705 38.2685 52.6705 38.0751V36.5832H53.1271V38.0201C53.1271 38.1799 53.1714 38.3072 53.26 38.4019C53.3485 38.4965 53.4636 38.5439 53.6051 38.5439C53.6906 38.5439 53.7756 38.5225 53.8601 38.4797C53.9456 38.437 54.0163 38.3723 54.0723 38.2858C54.1293 38.1993 54.1573 38.0893 54.1563 37.956ZM56.9854 37.1558L56.5716 37.2291C56.5543 37.1762 56.5268 37.1258 56.4892 37.078C56.4525 37.0301 56.4026 36.9909 56.3395 36.9604C56.2764 36.9298 56.1975 36.9146 56.1028 36.9146C55.9736 36.9146 55.8656 36.9436 55.7791 37.0016C55.6926 37.0586 55.6493 37.1324 55.6493 37.223C55.6493 37.3014 55.6783 37.3645 55.7364 37.4124C55.7944 37.4602 55.888 37.4994 56.0173 37.5299L56.3899 37.6155C56.6057 37.6653 56.7666 37.7422 56.8724 37.846C56.9783 37.9499 57.0312 38.0847 57.0312 38.2507C57.0312 38.3912 56.9905 38.5164 56.9091 38.6263C56.8287 38.7352 56.7162 38.8208 56.5716 38.8829C56.4281 38.945 56.2616 38.976 56.0723 38.976C55.8097 38.976 55.5954 38.92 55.4294 38.808C55.2635 38.695 55.1617 38.5347 55.124 38.327L55.5653 38.2598C55.5928 38.3749 55.6493 38.4619 55.7348 38.521C55.8203 38.579 55.9318 38.608 56.0692 38.608C56.2189 38.608 56.3385 38.5769 56.4281 38.5149C56.5177 38.4517 56.5625 38.3749 56.5625 38.2843C56.5625 38.211 56.535 38.1494 56.48 38.0995C56.426 38.0496 56.3431 38.012 56.2311 37.9865L55.8341 37.8995C55.6152 37.8496 55.4534 37.7702 55.3485 37.6613C55.2447 37.5523 55.1928 37.4144 55.1928 37.2475C55.1928 37.109 55.2314 36.9879 55.3088 36.884C55.3862 36.7802 55.4931 36.6993 55.6295 36.6412C55.7659 36.5822 55.9221 36.5527 56.0983 36.5527C56.3517 36.5527 56.5513 36.6076 56.6968 36.7176C56.8424 36.8265 56.9386 36.9726 56.9854 37.1558ZM58.6281 36.5832V36.9497H57.347V36.5832H58.6281ZM57.6905 36.0213H58.1471V38.24C58.1471 38.3286 58.1603 38.3952 58.1868 38.44C58.2133 38.4838 58.2474 38.5138 58.2891 38.5301C58.3319 38.5454 58.3782 38.553 58.4281 38.553C58.4647 38.553 58.4968 38.5505 58.5243 38.5454C58.5517 38.5403 58.5731 38.5362 58.5884 38.5332L58.6709 38.9103C58.6444 38.9205 58.6067 38.9307 58.5579 38.9409C58.509 38.9521 58.4479 38.9582 58.3746 38.9592C58.2545 38.9612 58.1425 38.9399 58.0387 38.8951C57.9348 38.8503 57.8509 38.7811 57.7867 38.6874C57.7226 38.5937 57.6905 38.4762 57.6905 38.3347V36.0213ZM59.434 38.9577C59.3505 38.9577 59.2787 38.9282 59.2187 38.8691C59.1586 38.8091 59.1286 38.7368 59.1286 38.6523C59.1286 38.5688 59.1586 38.4975 59.2187 38.4385C59.2787 38.3784 59.3505 38.3484 59.434 38.3484C59.5174 38.3484 59.5892 38.3784 59.6493 38.4385C59.7093 38.4975 59.7394 38.5688 59.7394 38.6523C59.7394 38.7083 59.7251 38.7597 59.6966 38.8065C59.6691 38.8523 59.6325 38.889 59.5867 38.9164C59.5409 38.9439 59.49 38.9577 59.434 38.9577ZM60.0864 36.2076V35.8014H62.5066V36.2076H61.5309V38.9287H61.0606V36.2076H60.0864ZM62.7613 38.9287V36.5832H63.2026V36.9558H63.227C63.2698 36.8296 63.3451 36.7303 63.453 36.658C63.5619 36.5847 63.6851 36.5481 63.8225 36.5481C63.851 36.5481 63.8846 36.5491 63.9233 36.5511C63.963 36.5532 63.9941 36.5557 64.0165 36.5588V36.9955C63.9981 36.9904 63.9656 36.9848 63.9187 36.9787C63.8719 36.9716 63.8251 36.968 63.7782 36.968C63.6703 36.968 63.5741 36.9909 63.4896 37.0367C63.4062 37.0815 63.34 37.1441 63.2911 37.2245C63.2423 37.3039 63.2178 37.3946 63.2178 37.4963V38.9287H62.7613ZM65.0731 38.9806C64.9245 38.9806 64.7901 38.9531 64.67 38.8981C64.5499 38.8421 64.4547 38.7612 64.3845 38.6553C64.3152 38.5495 64.2806 38.4197 64.2806 38.266C64.2806 38.1336 64.3061 38.0247 64.357 37.9392C64.4079 37.8537 64.4766 37.786 64.5631 37.7361C64.6496 37.6862 64.7464 37.6485 64.8532 37.6231C64.9601 37.5976 65.0691 37.5783 65.18 37.5651C65.3205 37.5488 65.4345 37.5355 65.5221 37.5254C65.6096 37.5142 65.6732 37.4963 65.7129 37.4719C65.7526 37.4475 65.7725 37.4078 65.7725 37.3528V37.3421C65.7725 37.2088 65.7348 37.1054 65.6595 37.0321C65.5852 36.9588 65.4742 36.9222 65.3266 36.9222C65.1729 36.9222 65.0518 36.9563 64.9632 37.0245C64.8756 37.0917 64.8151 37.1665 64.7815 37.249L64.3524 37.1513C64.4033 37.0087 64.4776 36.8937 64.5753 36.8062C64.6741 36.7176 64.7876 36.6535 64.9159 36.6138C65.0441 36.573 65.179 36.5527 65.3205 36.5527C65.4142 36.5527 65.5134 36.5639 65.6183 36.5863C65.7241 36.6076 65.8229 36.6473 65.9145 36.7054C66.0071 36.7634 66.083 36.8464 66.142 36.9543C66.2011 37.0612 66.2306 37.2001 66.2306 37.3711V38.9287H65.7847V38.608H65.7664C65.7369 38.667 65.6926 38.7251 65.6335 38.7821C65.5745 38.8391 65.4987 38.8864 65.406 38.9241C65.3134 38.9617 65.2024 38.9806 65.0731 38.9806ZM65.1724 38.6141C65.2986 38.6141 65.4065 38.5892 65.4961 38.5393C65.5867 38.4894 65.6554 38.4242 65.7023 38.3438C65.7501 38.2624 65.774 38.1754 65.774 38.0827V37.7804C65.7577 37.7967 65.7262 37.8119 65.6793 37.8262C65.6335 37.8394 65.5811 37.8511 65.5221 37.8613C65.463 37.8705 65.4055 37.8791 65.3495 37.8873C65.2935 37.8944 65.2467 37.9005 65.209 37.9056C65.1205 37.9168 65.0395 37.9356 64.9662 37.9621C64.894 37.9885 64.8359 38.0267 64.7922 38.0766C64.7494 38.1255 64.728 38.1906 64.728 38.2721C64.728 38.3851 64.7698 38.4706 64.8532 38.5286C64.9367 38.5856 65.0431 38.6141 65.1724 38.6141ZM67.2953 37.5361V38.9287H66.8387V36.5832H67.277V36.965H67.306C67.3599 36.8408 67.4444 36.741 67.5595 36.6657C67.6755 36.5903 67.8216 36.5527 67.9977 36.5527C68.1575 36.5527 68.2975 36.5863 68.4176 36.6535C68.5377 36.7196 68.6309 36.8184 68.6971 36.9497C68.7632 37.081 68.7963 37.2434 68.7963 37.4368V38.9287H68.3397V37.4918C68.3397 37.3218 68.2955 37.1889 68.2069 37.0932C68.1183 36.9965 67.9967 36.9482 67.8419 36.9482C67.7361 36.9482 67.6419 36.9711 67.5595 37.0169C67.478 37.0627 67.4134 37.1299 67.3655 37.2184C67.3187 37.306 67.2953 37.4119 67.2953 37.5361ZM71.1662 37.1558L70.7524 37.2291C70.7351 37.1762 70.7076 37.1258 70.6699 37.078C70.6333 37.0301 70.5834 36.9909 70.5203 36.9604C70.4572 36.9298 70.3783 36.9146 70.2836 36.9146C70.1543 36.9146 70.0464 36.9436 69.9599 37.0016C69.8733 37.0586 69.8301 37.1324 69.8301 37.223C69.8301 37.3014 69.8591 37.3645 69.9171 37.4124C69.9751 37.4602 70.0688 37.4994 70.1981 37.5299L70.5707 37.6155C70.7865 37.6653 70.9473 37.7422 71.0532 37.846C71.1591 37.9499 71.212 38.0847 71.212 38.2507C71.212 38.3912 71.1713 38.5164 71.0899 38.6263C71.0094 38.7352 70.8969 38.8208 70.7524 38.8829C70.6088 38.945 70.4424 38.976 70.2531 38.976C69.9904 38.976 69.7761 38.92 69.6102 38.808C69.4443 38.695 69.3425 38.5347 69.3048 38.327L69.7461 38.2598C69.7736 38.3749 69.8301 38.4619 69.9156 38.521C70.0011 38.579 70.1126 38.608 70.25 38.608C70.3997 38.608 70.5193 38.5769 70.6088 38.5149C70.6984 38.4517 70.7432 38.3749 70.7432 38.2843C70.7432 38.211 70.7157 38.1494 70.6608 38.0995C70.6068 38.0496 70.5238 38.012 70.4119 37.9865L70.0149 37.8995C69.796 37.8496 69.6341 37.7702 69.5293 37.6613C69.4254 37.5523 69.3735 37.4144 69.3735 37.2475C69.3735 37.109 69.4122 36.9879 69.4896 36.884C69.5669 36.7802 69.6738 36.6993 69.8102 36.6412C69.9466 36.5822 70.1029 36.5527 70.279 36.5527C70.5325 36.5527 70.732 36.6076 70.8776 36.7176C71.0232 36.8265 71.1194 36.9726 71.1662 37.1558ZM71.714 39.8082V36.5832H72.1599V36.9634H72.1981C72.2245 36.9146 72.2627 36.8581 72.3126 36.7939C72.3625 36.7298 72.4317 36.6738 72.5203 36.626C72.6088 36.5771 72.7259 36.5527 72.8715 36.5527C73.0608 36.5527 73.2298 36.6005 73.3784 36.6962C73.5271 36.7919 73.6436 36.9298 73.7281 37.11C73.8136 37.2902 73.8564 37.507 73.8564 37.7605C73.8564 38.014 73.8141 38.2313 73.7296 38.4125C73.6451 38.5927 73.5291 38.7317 73.3815 38.8294C73.2339 38.9261 73.0654 38.9745 72.876 38.9745C72.7335 38.9745 72.617 38.9506 72.5264 38.9027C72.4368 38.8549 72.3665 38.7989 72.3156 38.7347C72.2647 38.6706 72.2255 38.6136 72.1981 38.5637H72.1706V39.8082H71.714ZM72.1614 37.7559C72.1614 37.9209 72.1853 38.0654 72.2332 38.1896C72.281 38.3138 72.3503 38.411 72.4409 38.4813C72.5315 38.5505 72.6424 38.5851 72.7737 38.5851C72.9101 38.5851 73.0242 38.549 73.1158 38.4767C73.2074 38.4034 73.2766 38.3041 73.3235 38.1789C73.3713 38.0537 73.3952 37.9127 73.3952 37.7559C73.3952 37.6012 73.3718 37.4622 73.325 37.3391C73.2792 37.2159 73.2099 37.1187 73.1173 37.0474C73.0257 36.9762 72.9112 36.9405 72.7737 36.9405C72.6414 36.9405 72.5294 36.9746 72.4378 37.0428C72.3472 37.111 72.2785 37.2062 72.2317 37.3284C72.1848 37.4505 72.1614 37.5931 72.1614 37.7559ZM75.0505 38.9806C74.9019 38.9806 74.7675 38.9531 74.6474 38.8981C74.5272 38.8421 74.432 38.7612 74.3618 38.6553C74.2926 38.5495 74.258 38.4197 74.258 38.266C74.258 38.1336 74.2834 38.0247 74.3343 37.9392C74.3852 37.8537 74.4539 37.786 74.5405 37.7361C74.627 37.6862 74.7237 37.6485 74.8306 37.6231C74.9375 37.5976 75.0464 37.5783 75.1574 37.5651C75.2979 37.5488 75.4119 37.5355 75.4994 37.5254C75.587 37.5142 75.6506 37.4963 75.6903 37.4719C75.73 37.4475 75.7498 37.4078 75.7498 37.3528V37.3421C75.7498 37.2088 75.7122 37.1054 75.6368 37.0321C75.5625 36.9588 75.4516 36.9222 75.304 36.9222C75.1502 36.9222 75.0291 36.9563 74.9405 37.0245C74.853 37.0917 74.7924 37.1665 74.7588 37.249L74.3297 37.1513C74.3806 37.0087 74.455 36.8937 74.5527 36.8062C74.6514 36.7176 74.7649 36.6535 74.8932 36.6138C75.0215 36.573 75.1563 36.5527 75.2979 36.5527C75.3915 36.5527 75.4908 36.5639 75.5956 36.5863C75.7015 36.6076 75.8002 36.6473 75.8918 36.7054C75.9845 36.7634 76.0603 36.8464 76.1194 36.9543C76.1784 37.0612 76.2079 37.2001 76.2079 37.3711V38.9287H75.7621V38.608H75.7437C75.7142 38.667 75.6699 38.7251 75.6109 38.7821C75.5518 38.8391 75.476 38.8864 75.3834 38.9241C75.2907 38.9617 75.1798 38.9806 75.0505 38.9806ZM75.1497 38.6141C75.276 38.6141 75.3839 38.5892 75.4735 38.5393C75.5641 38.4894 75.6328 38.4242 75.6796 38.3438C75.7274 38.2624 75.7514 38.1754 75.7514 38.0827V37.7804C75.7351 37.7967 75.7035 37.8119 75.6567 37.8262C75.6109 37.8394 75.5585 37.8511 75.4994 37.8613C75.4404 37.8705 75.3829 37.8791 75.3269 37.8873C75.2709 37.8944 75.224 37.9005 75.1864 37.9056C75.0978 37.9168 75.0169 37.9356 74.9436 37.9621C74.8713 37.9885 74.8133 38.0267 74.7695 38.0766C74.7268 38.1255 74.7054 38.1906 74.7054 38.2721C74.7054 38.3851 74.7471 38.4706 74.8306 38.5286C74.9141 38.5856 75.0204 38.6141 75.1497 38.6141ZM76.8161 38.9287V36.5832H77.2574V36.9558H77.2818C77.3245 36.8296 77.3999 36.7303 77.5078 36.658C77.6167 36.5847 77.7399 36.5481 77.8773 36.5481C77.9058 36.5481 77.9394 36.5491 77.9781 36.5511C78.0178 36.5532 78.0488 36.5557 78.0712 36.5588V36.9955C78.0529 36.9904 78.0203 36.9848 77.9735 36.9787C77.9267 36.9716 77.8799 36.968 77.833 36.968C77.7251 36.968 77.6289 36.9909 77.5444 37.0367C77.461 37.0815 77.3948 37.1441 77.3459 37.2245C77.2971 37.3039 77.2726 37.3946 77.2726 37.4963V38.9287H76.8161ZM79.3932 38.976C79.1622 38.976 78.9631 38.9266 78.7962 38.8279C78.6302 38.7281 78.502 38.5881 78.4114 38.408C78.3218 38.2268 78.277 38.0145 78.277 37.7712C78.277 37.531 78.3218 37.3192 78.4114 37.136C78.502 36.9527 78.6282 36.8097 78.7901 36.7069C78.953 36.6041 79.1433 36.5527 79.3612 36.5527C79.4935 36.5527 79.6218 36.5746 79.746 36.6183C79.8702 36.6621 79.9816 36.7308 80.0804 36.8245C80.1791 36.9181 80.257 37.0398 80.314 37.1894C80.371 37.3381 80.3995 37.5187 80.3995 37.7315V37.8934H78.5351V37.5513H79.9521C79.9521 37.4312 79.9277 37.3248 79.8788 37.2322C79.83 37.1385 79.7612 37.0647 79.6727 37.0108C79.5851 36.9568 79.4823 36.9298 79.3642 36.9298C79.236 36.9298 79.124 36.9614 79.0283 37.0245C78.9336 37.0866 78.8603 37.168 78.8084 37.2688C78.7575 37.3686 78.732 37.477 78.732 37.5941V37.8613C78.732 38.0181 78.7595 38.1514 78.8145 38.2614C78.8705 38.3713 78.9484 38.4553 79.0481 38.5133C79.1479 38.5703 79.2645 38.5988 79.3978 38.5988C79.4843 38.5988 79.5632 38.5866 79.6345 38.5622C79.7058 38.5367 79.7673 38.4991 79.8193 38.4492C79.8712 38.3993 79.9109 38.3377 79.9384 38.2644L80.3705 38.3423C80.3359 38.4696 80.2738 38.581 80.1842 38.6767C80.0956 38.7714 79.9842 38.8452 79.8498 38.8981C79.7164 38.95 79.5643 38.976 79.3932 38.976ZM81.3627 37.5361V38.9287H80.9061V36.5832H81.3443V36.965H81.3734C81.4273 36.8408 81.5118 36.741 81.6268 36.6657C81.7429 36.5903 81.889 36.5527 82.0651 36.5527C82.2249 36.5527 82.3649 36.5863 82.485 36.6535C82.6051 36.7196 82.6983 36.8184 82.7644 36.9497C82.8306 37.081 82.8637 37.2434 82.8637 37.4368V38.9287H82.4071V37.4918C82.4071 37.3218 82.3628 37.1889 82.2743 37.0932C82.1857 36.9965 82.0641 36.9482 81.9093 36.9482C81.8035 36.9482 81.7093 36.9711 81.6268 37.0169C81.5454 37.0627 81.4808 37.1299 81.4329 37.2184C81.3861 37.306 81.3627 37.4119 81.3627 37.5361ZM84.464 38.976C84.237 38.976 84.0415 38.9246 83.8776 38.8218C83.7147 38.7179 83.5895 38.5749 83.502 38.3927C83.4144 38.2105 83.3707 38.0018 83.3707 37.7666C83.3707 37.5284 83.4154 37.3182 83.505 37.136C83.5946 36.9527 83.7208 36.8097 83.8837 36.7069C84.0466 36.6041 84.2385 36.5527 84.4594 36.5527C84.6375 36.5527 84.7964 36.5858 84.9358 36.6519C85.0753 36.7171 85.1878 36.8087 85.2733 36.9268C85.3598 37.0449 85.4112 37.1828 85.4275 37.3406H84.9832C84.9587 37.2307 84.9027 37.136 84.8152 37.0566C84.7287 36.9772 84.6126 36.9375 84.467 36.9375C84.3398 36.9375 84.2283 36.9711 84.1326 37.0383C84.038 37.1044 83.9641 37.1991 83.9112 37.3223C83.8583 37.4444 83.8318 37.589 83.8318 37.7559C83.8318 37.927 83.8578 38.0746 83.9097 38.1988C83.9616 38.323 84.0349 38.4192 84.1296 38.4874C84.2253 38.5556 84.3377 38.5897 84.467 38.5897C84.5536 38.5897 84.6319 38.5739 84.7022 38.5423C84.7735 38.5098 84.833 38.4634 84.8808 38.4034C84.9297 38.3433 84.9638 38.271 84.9832 38.1865H85.4275C85.4112 38.3382 85.3618 38.4736 85.2794 38.5927C85.1969 38.7118 85.0865 38.8055 84.948 38.8737C84.8106 38.9419 84.6493 38.976 84.464 38.976ZM86.2044 39.8082C86.1362 39.8082 86.0741 39.8026 86.0181 39.7914C85.9621 39.7812 85.9203 39.77 85.8929 39.7578L86.0028 39.3837C86.0863 39.4061 86.1606 39.4158 86.2257 39.4127C86.2909 39.4097 86.3484 39.3852 86.3983 39.3394C86.4492 39.2936 86.494 39.2188 86.5327 39.115L86.5892 38.9592L85.731 36.5832H86.2196L86.8136 38.4034H86.8381L87.4321 36.5832H87.9222L86.9556 39.2417C86.9109 39.3639 86.8538 39.4672 86.7846 39.5517C86.7154 39.6372 86.6329 39.7013 86.5373 39.7441C86.4416 39.7868 86.3306 39.8082 86.2044 39.8082Z" fill="black"/>
</svg>
