<svg width="24" height="24" viewBox="0 0 24 24" fill="none" xmlns="http://www.w3.org/2000/svg">
<path d="M7.5 3.75V20.25H4.5C4.30109 20.25 4.11032 20.171 3.96967 20.0303C3.82902 19.8897 3.75 19.6989 3.75 19.5V4.5C3.75 4.30109 3.82902 4.11032 3.96967 3.96967C4.11032 3.82902 4.30109 3.75 4.5 3.75H7.5Z" fill="black" fill-opacity="0.04"/>
<path d="M7.36065 9.23151H6.0603V10.5315H7.36065V9.23151Z" fill="black"/>
<path d="M7.36065 13.412H6.0603V14.7121H7.36065V13.412Z" fill="black"/>
<path d="M7.36065 17.5925H6.0603V18.8932H7.36065V17.5925Z" fill="black"/>
<path d="M7.36065 5.05048H6.0603V6.35114H7.36065V5.05048Z" fill="black"/>
<path d="M16.6321 2H4.09684C3.49514 2 3 2.49514 3 3.09684V20.8468C3 21.4485 3.49514 21.9436 4.09684 21.9436H13.3667C12.5744 21.3484 11.9707 20.5194 11.6444 19.5622H9.77538C9.51583 19.5622 9.3053 19.3516 9.3053 19.0921C9.3053 18.8326 9.51583 18.622 9.77538 18.622H11.4209C11.3919 18.4042 11.3736 18.1831 11.3736 17.9574C11.3736 17.9257 11.3778 17.8952 11.3783 17.8636H9.77538C9.51583 17.8636 9.3053 17.6531 9.3053 17.3936C9.3053 17.134 9.51583 16.9235 9.77538 16.9235H11.483C11.6005 16.3694 11.8138 15.8517 12.0991 15.3823H9.77776C9.51822 15.3823 9.30769 15.1718 9.30769 14.9122C9.30769 14.6527 9.51822 14.4421 9.77776 14.4421H12.8301C13.1235 14.1483 13.4563 13.8955 13.8152 13.6819H9.77776C9.51822 13.6819 9.30769 13.4714 9.30769 13.2119C9.30769 12.9523 9.51822 12.7418 9.77776 12.7418H15.1386C15.3398 12.7418 15.5084 12.8696 15.5754 13.0473C15.8285 13.0075 16.0859 12.9809 16.35 12.9809C16.8263 12.9809 17.2901 13.0498 17.7289 13.1752V3.09684C17.7289 2.49514 17.2338 2 16.6321 2ZM8.30085 19.0498C8.30085 19.482 7.94955 19.8333 7.5174 19.8333H5.90367C5.47152 19.8333 5.12022 19.482 5.12022 19.0498V17.4358C5.12022 17.0037 5.47152 16.6524 5.90367 16.6524H7.5174C7.94955 16.6524 8.30085 17.0037 8.30085 17.4358V19.0498ZM8.30085 14.8688C8.30085 15.3009 7.94955 15.6522 7.5174 15.6522H5.90367C5.47152 15.6522 5.12022 15.3009 5.12022 14.8688V13.2554C5.12022 12.8232 5.47152 12.4719 5.90367 12.4719H7.5174C7.94955 12.4719 8.30085 12.8232 8.30085 13.2554V14.8688ZM8.30085 10.6883C8.30085 11.1205 7.94955 11.4718 7.5174 11.4718H5.90367C5.47152 11.4718 5.12022 11.1205 5.12022 10.6883V9.07491C5.12022 8.64275 5.47152 8.29145 5.90367 8.29145H7.5174C7.94955 8.29145 8.30085 8.64275 8.30085 9.07491V10.6883ZM8.30085 6.50787C8.30085 6.94002 7.94955 7.29133 7.5174 7.29133H5.90367C5.47152 7.29133 5.12022 6.94002 5.12022 6.50787V4.89383C5.12022 4.46168 5.47152 4.11038 5.90367 4.11038H7.5174C7.94955 4.11038 8.30085 4.46168 8.30085 4.89383V6.50787ZM13.5785 11.2019H9.77776C9.51822 11.2019 9.30769 10.9914 9.30769 10.7318C9.30769 10.4723 9.51822 10.2617 9.77776 10.2617H13.5785C13.838 10.2617 14.0485 10.4723 14.0485 10.7318C14.0485 10.9914 13.838 11.2019 13.5785 11.2019ZM15.1387 9.50154H9.77782C9.51828 9.50154 9.30775 9.29102 9.30775 9.03147C9.30775 8.77193 9.51828 8.5614 9.77782 8.5614H15.1387C15.3982 8.5614 15.6087 8.77193 15.6087 9.03147C15.6087 9.29102 15.3982 9.50154 15.1387 9.50154ZM9.30775 6.55068C9.30775 6.29114 9.51828 6.08061 9.77782 6.08061H13.5785C13.8381 6.08061 14.0486 6.29114 14.0486 6.55068C14.0486 6.81022 13.8381 7.02075 13.5785 7.02075H9.77782C9.51828 7.02075 9.30775 6.81022 9.30775 6.55068ZM15.1387 5.32103H9.77782C9.51828 5.32103 9.30775 5.1105 9.30775 4.85096C9.30775 4.59142 9.51828 4.38089 9.77782 4.38089H15.1387C15.3982 4.38089 15.6087 4.59142 15.6087 4.85096C15.6087 5.1105 15.3982 5.32103 15.1387 5.32103Z" fill="black"/>
<path d="M16.3501 13.921C14.1251 13.921 12.3137 15.7324 12.3137 17.9574C12.3137 20.1887 14.1251 22 16.3501 22C18.5814 22 20.3927 20.1887 20.3927 17.9574C20.3927 15.7324 18.5814 13.921 16.3501 13.921ZM18.2492 17.3494L16.3563 19.236C16.2686 19.33 16.1495 19.3739 16.0242 19.3739C15.9051 19.3739 15.786 19.33 15.692 19.236L14.9399 18.4839C14.7581 18.2958 14.7581 18.0013 14.9399 17.8194C15.1216 17.6314 15.4225 17.6314 15.6042 17.8194L16.0242 18.2394L17.5785 16.685C17.7666 16.497 18.0611 16.497 18.2492 16.685C18.4309 16.8667 18.4309 17.1677 18.2492 17.3494Z" fill="black"/>
</svg>
