<svg width="24" height="24" viewBox="0 0 24 24" fill="none" xmlns="http://www.w3.org/2000/svg">
<path d="M4.57492 12.0003C4.57492 10.4328 5.84909 9.15866 7.41659 9.15866H11.0833V7.41699H7.41659C4.88659 7.41699 2.83325 9.47033 2.83325 12.0003C2.83325 14.5303 4.88659 16.5837 7.41659 16.5837H11.0833V14.842H7.41659C5.84909 14.842 4.57492 13.5678 4.57492 12.0003ZM8.33325 12.917H15.6666V11.0837H8.33325V12.917ZM16.5833 7.41699H12.9166V9.15866H16.5833C18.1508 9.15866 19.4249 10.4328 19.4249 12.0003C19.4249 13.5678 18.1508 14.842 16.5833 14.842H12.9166V16.5837H16.5833C19.1133 16.5837 21.1666 14.5303 21.1666 12.0003C21.1666 9.47033 19.1133 7.41699 16.5833 7.41699Z" fill="black" fill-opacity="0.54"/>
</svg>
